<svg id="svg" version="1.1" xmlns="http://www.w3.org/2000/svg" xmlns:xlink="http://www.w3.org/1999/xlink" width="400" height="319.2079207920792" viewBox="0, 0, 400,319.2079207920792"><g id="svgg"><path id="path0" d="M223.783 34.777 C 223.783 34.963,223.280 35.116,222.666 35.116 C 221.885 35.116,221.548 35.260,221.548 35.595 C 221.548 35.858,221.333 36.073,221.069 36.073 C 220.806 36.073,220.591 36.217,220.591 36.393 C 220.591 36.568,220.364 36.712,220.086 36.712 C 219.430 36.712,215.802 40.339,215.802 40.996 C 215.802 41.273,215.658 41.500,215.483 41.500 C 215.307 41.500,215.164 41.716,215.164 41.979 C 215.164 42.243,214.948 42.458,214.685 42.458 C 214.387 42.458,214.206 42.760,214.206 43.256 C 214.206 43.695,214.062 44.054,213.887 44.054 C 213.711 44.054,213.567 44.542,213.567 45.137 C 213.567 45.806,213.384 46.291,213.089 46.404 C 212.825 46.505,212.610 46.880,212.610 47.237 C 212.610 47.593,212.466 47.885,212.291 47.885 C 212.115 47.885,211.971 48.603,211.971 49.481 C 211.971 50.687,211.854 51.077,211.492 51.077 C 211.194 51.077,211.014 51.379,211.014 51.875 C 211.014 52.314,210.870 52.674,210.694 52.674 C 210.519 52.674,210.375 52.889,210.375 53.152 C 210.375 53.416,210.160 53.631,209.896 53.631 C 209.598 53.631,209.417 53.933,209.417 54.429 C 209.417 54.868,209.274 55.227,209.098 55.227 C 208.923 55.227,208.779 55.499,208.779 55.832 C 208.779 56.164,208.563 56.519,208.300 56.620 C 208.037 56.721,207.821 57.095,207.821 57.452 C 207.821 57.809,207.678 58.101,207.502 58.101 C 207.326 58.101,207.183 58.444,207.183 58.864 C 207.183 59.285,206.967 59.711,206.704 59.812 C 206.441 59.913,206.225 60.288,206.225 60.644 C 206.225 61.001,206.081 61.293,205.906 61.293 C 205.730 61.293,205.587 61.493,205.587 61.738 C 205.587 61.982,205.371 62.265,205.108 62.366 C 204.844 62.467,204.629 62.842,204.629 63.198 C 204.629 63.555,204.485 63.847,204.310 63.847 C 204.134 63.847,203.990 64.206,203.990 64.645 C 203.990 65.141,203.810 65.443,203.512 65.443 C 203.214 65.443,203.033 65.744,203.033 66.241 C 203.033 66.680,202.889 67.039,202.713 67.039 C 202.538 67.039,202.394 67.374,202.394 67.783 C 202.394 68.250,202.097 68.686,201.596 68.955 C 201.095 69.223,200.798 69.659,200.798 70.126 C 200.798 70.864,200.767 70.870,196.957 70.870 C 193.838 70.870,193.082 70.960,192.933 71.349 C 192.798 71.699,192.245 71.828,190.868 71.828 C 189.826 71.828,188.986 71.970,188.986 72.147 C 188.986 72.322,188.268 72.466,187.390 72.466 C 186.184 72.466,185.794 72.583,185.794 72.945 C 185.794 73.307,185.404 73.424,184.198 73.424 C 183.320 73.424,182.602 73.567,182.602 73.743 C 182.602 73.919,181.899 74.062,181.040 74.062 C 179.946 74.062,179.423 74.206,179.294 74.541 C 179.187 74.821,178.708 75.020,178.143 75.020 C 177.610 75.020,177.175 75.164,177.175 75.339 C 177.175 75.515,176.600 75.658,175.898 75.658 C 175.196 75.658,174.621 75.787,174.621 75.943 C 174.621 76.100,174.262 76.318,173.823 76.428 C 173.384 76.538,173.025 76.769,173.025 76.941 C 173.025 77.114,172.666 77.255,172.227 77.255 C 171.788 77.255,171.429 77.398,171.429 77.574 C 171.429 77.749,171.080 77.893,170.653 77.893 C 170.227 77.893,169.663 78.109,169.399 78.372 C 169.136 78.635,168.623 78.851,168.259 78.851 C 167.895 78.851,167.598 78.979,167.598 79.135 C 167.598 79.292,167.239 79.510,166.800 79.620 C 166.361 79.730,166.002 79.962,166.002 80.134 C 166.002 80.306,165.786 80.447,165.523 80.447 C 165.259 80.447,165.044 80.591,165.044 80.766 C 165.044 80.942,164.752 81.085,164.395 81.085 C 164.039 81.085,163.664 81.301,163.563 81.564 C 163.462 81.828,163.097 82.043,162.752 82.043 C 162.074 82.043,161.213 82.745,161.213 83.297 C 161.213 83.485,160.854 83.639,160.415 83.639 C 159.976 83.639,159.617 83.783,159.617 83.958 C 159.617 84.134,159.350 84.278,159.023 84.278 C 158.697 84.278,158.160 84.637,157.830 85.076 C 157.500 85.515,156.906 85.874,156.508 85.874 C 156.079 85.874,155.786 86.068,155.786 86.353 C 155.786 86.616,155.632 86.832,155.444 86.832 C 155.002 86.832,154.190 87.644,154.190 88.086 C 154.190 88.274,153.831 88.428,153.392 88.428 C 152.953 88.428,152.594 88.571,152.594 88.747 C 152.594 88.923,152.378 89.066,152.115 89.066 C 151.852 89.066,151.636 89.220,151.636 89.408 C 151.636 89.972,150.769 90.662,150.063 90.662 C 149.688 90.662,149.401 90.870,149.401 91.141 C 149.401 91.405,149.248 91.620,149.059 91.620 C 148.617 91.620,147.805 92.432,147.805 92.874 C 147.805 93.062,147.651 93.216,147.463 93.216 C 147.021 93.216,146.209 94.028,146.209 94.470 C 146.209 94.659,145.913 94.812,145.550 94.812 C 144.793 94.812,137.590 101.825,137.590 102.562 C 137.590 102.816,137.231 103.293,136.792 103.622 C 136.353 103.952,135.994 104.403,135.994 104.625 C 135.994 104.847,135.840 105.028,135.652 105.028 C 135.210 105.028,134.397 105.840,134.397 106.282 C 134.397 106.470,134.244 106.624,134.055 106.624 C 133.492 106.624,132.801 107.491,132.801 108.197 C 132.801 108.572,132.594 108.859,132.322 108.859 C 132.059 108.859,131.844 109.013,131.844 109.201 C 131.844 109.643,131.031 110.455,130.589 110.455 C 130.401 110.455,130.247 110.814,130.247 111.253 C 130.247 111.692,130.104 112.051,129.928 112.051 C 129.753 112.051,129.609 112.267,129.609 112.530 C 129.609 112.793,129.455 113.009,129.267 113.009 C 128.704 113.009,128.013 113.875,128.013 114.582 C 128.013 114.957,127.805 115.243,127.534 115.243 C 127.271 115.243,127.055 115.459,127.055 115.722 C 127.055 115.986,126.911 116.201,126.736 116.201 C 126.560 116.201,126.417 116.560,126.417 116.999 C 126.417 117.438,126.263 117.797,126.075 117.797 C 125.511 117.797,124.820 118.664,124.820 119.371 C 124.820 119.746,124.613 120.032,124.342 120.032 C 124.057 120.032,123.863 120.325,123.863 120.754 C 123.863 121.152,123.504 121.746,123.065 122.076 C 122.626 122.406,122.267 122.942,122.267 123.269 C 122.267 123.596,122.123 123.863,121.947 123.863 C 121.772 123.863,121.628 124.078,121.628 124.342 C 121.628 124.605,121.487 124.820,121.315 124.820 C 121.143 124.820,120.912 125.180,120.801 125.619 C 120.691 126.057,120.473 126.417,120.317 126.417 C 120.160 126.417,120.032 126.760,120.032 127.181 C 120.032 127.601,119.816 128.027,119.553 128.128 C 119.290 128.229,119.074 128.604,119.074 128.960 C 119.074 129.317,118.931 129.609,118.755 129.609 C 118.579 129.609,118.436 129.953,118.436 130.373 C 118.436 130.793,118.220 131.219,117.957 131.321 C 117.694 131.422,117.478 131.796,117.478 132.153 C 117.478 132.509,117.334 132.801,117.159 132.801 C 116.983 132.801,116.840 133.160,116.840 133.599 C 116.840 134.038,116.712 134.397,116.555 134.397 C 116.398 134.397,116.180 134.757,116.070 135.196 C 115.960 135.634,115.729 135.994,115.557 135.994 C 115.384 135.994,115.243 136.353,115.243 136.792 C 115.243 137.231,115.100 137.590,114.924 137.590 C 114.749 137.590,114.605 138.093,114.605 138.707 C 114.605 139.487,114.461 139.824,114.126 139.824 C 113.828 139.824,113.647 140.126,113.647 140.623 C 113.647 141.061,113.504 141.421,113.328 141.421 C 113.152 141.421,113.009 141.908,113.009 142.504 C 113.009 143.172,112.825 143.657,112.530 143.771 C 112.267 143.872,112.051 144.238,112.051 144.584 C 112.051 144.930,111.907 145.303,111.732 145.411 C 111.556 145.520,111.413 146.103,111.413 146.707 C 111.413 147.470,111.267 147.805,110.934 147.805 C 110.599 147.805,110.455 148.142,110.455 148.923 C 110.455 149.537,110.311 150.040,110.136 150.040 C 109.960 150.040,109.816 150.615,109.816 151.317 C 109.816 152.239,109.683 152.594,109.338 152.594 C 108.976 152.594,108.859 152.984,108.859 154.190 C 108.859 155.068,108.715 155.786,108.540 155.786 C 108.364 155.786,108.220 156.504,108.220 157.382 C 108.220 158.588,108.103 158.978,107.741 158.978 C 107.388 158.978,107.263 159.349,107.263 160.396 C 107.263 161.176,107.119 161.903,106.943 162.011 C 106.768 162.120,106.624 162.831,106.624 163.592 C 106.624 164.485,106.465 165.037,106.176 165.148 C 105.741 165.315,105.587 166.197,105.153 171.012 C 105.052 172.133,104.779 173.153,104.523 173.366 C 104.200 173.634,104.070 174.489,104.070 176.352 C 104.070 177.788,103.921 179.112,103.737 179.295 C 103.274 179.759,103.272 206.970,103.735 207.124 C 103.934 207.190,104.070 208.332,104.070 209.923 C 104.070 212.098,104.161 212.610,104.549 212.610 C 104.929 212.610,105.028 213.069,105.028 214.826 C 105.028 216.044,105.172 217.130,105.347 217.239 C 105.523 217.347,105.666 218.078,105.666 218.864 C 105.666 219.838,105.818 220.350,106.145 220.475 C 106.481 220.604,106.624 221.127,106.624 222.221 C 106.624 223.080,106.768 223.783,106.943 223.783 C 107.119 223.783,107.263 224.434,107.263 225.229 C 107.263 226.221,107.413 226.734,107.741 226.860 C 108.037 226.973,108.220 227.458,108.220 228.127 C 108.220 228.722,108.364 229.210,108.540 229.210 C 108.715 229.210,108.859 229.785,108.859 230.487 C 108.859 231.409,108.992 231.764,109.338 231.764 C 109.672 231.764,109.816 232.101,109.816 232.881 C 109.816 233.496,109.960 233.998,110.136 233.998 C 110.311 233.998,110.455 234.506,110.455 235.126 C 110.455 235.833,110.633 236.321,110.934 236.437 C 111.197 236.538,111.413 236.964,111.413 237.385 C 111.413 237.805,111.556 238.148,111.732 238.148 C 111.907 238.148,112.051 238.508,112.051 238.947 C 112.051 239.443,112.232 239.745,112.530 239.745 C 112.864 239.745,113.009 240.082,113.009 240.862 C 113.009 241.476,113.152 241.979,113.328 241.979 C 113.504 241.979,113.647 242.338,113.647 242.777 C 113.647 243.274,113.828 243.575,114.126 243.575 C 114.396 243.575,114.605 243.861,114.605 244.228 C 114.605 244.588,114.964 245.241,115.403 245.679 C 115.842 246.118,116.201 246.686,116.201 246.942 C 116.201 247.197,116.345 247.406,116.520 247.406 C 116.696 247.406,116.840 247.713,116.840 248.088 C 116.840 248.463,117.199 249.102,117.638 249.509 C 118.077 249.916,118.436 250.481,118.436 250.766 C 118.436 251.352,119.176 252.195,119.690 252.195 C 119.878 252.195,120.032 252.501,120.032 252.876 C 120.032 253.251,120.391 253.891,120.830 254.298 C 121.269 254.705,121.628 255.270,121.628 255.554 C 121.628 256.140,122.368 256.983,122.882 256.983 C 123.070 256.983,123.224 257.284,123.224 257.651 C 123.224 258.065,124.254 259.336,125.938 261.001 C 127.548 262.594,128.651 263.944,128.651 264.324 C 128.651 264.794,128.863 264.964,129.449 264.964 C 129.946 264.964,130.247 265.145,130.247 265.443 C 130.247 265.706,130.431 265.922,130.656 265.922 C 130.880 265.922,131.271 266.209,131.524 266.560 C 131.777 266.911,132.168 267.199,132.393 267.199 C 132.618 267.199,132.801 267.353,132.801 267.541 C 132.801 267.983,133.613 268.795,134.055 268.795 C 134.244 268.795,134.397 268.949,134.397 269.137 C 134.397 269.700,135.264 270.391,135.971 270.391 C 136.346 270.391,136.632 270.598,136.632 270.870 C 136.632 271.133,136.848 271.349,137.111 271.349 C 137.374 271.349,137.590 271.492,137.590 271.668 C 137.590 271.844,137.877 271.987,138.228 271.987 C 138.583 271.987,138.867 272.200,138.867 272.466 C 138.867 272.729,139.082 272.945,139.346 272.945 C 139.609 272.945,139.824 273.089,139.824 273.264 C 139.824 273.440,140.092 273.583,140.418 273.583 C 140.745 273.583,141.282 273.943,141.611 274.381 C 141.941 274.821,142.535 275.180,142.933 275.180 C 143.362 275.180,143.655 275.374,143.655 275.658 C 143.655 275.922,143.871 276.137,144.134 276.137 C 144.397 276.137,144.613 276.281,144.613 276.457 C 144.613 276.632,144.972 276.776,145.411 276.776 C 145.908 276.776,146.209 276.957,146.209 277.255 C 146.209 277.553,146.511 277.733,147.007 277.733 C 147.446 277.733,147.805 277.877,147.805 278.053 C 147.805 278.228,148.164 278.372,148.603 278.372 C 149.100 278.372,149.401 278.553,149.401 278.851 C 149.401 279.149,149.703 279.330,150.200 279.330 C 150.638 279.330,150.998 279.473,150.998 279.649 C 150.998 279.824,151.485 279.968,152.081 279.968 C 152.749 279.968,153.234 280.151,153.348 280.447 C 153.463 280.747,153.951 280.926,154.659 280.926 C 155.279 280.926,155.786 281.069,155.786 281.245 C 155.786 281.421,156.274 281.564,156.869 281.564 C 157.538 281.564,158.023 281.748,158.136 282.043 C 158.262 282.371,158.775 282.522,159.767 282.522 C 160.562 282.522,161.213 282.666,161.213 282.841 C 161.213 283.017,161.916 283.160,162.775 283.160 C 163.869 283.160,164.392 283.304,164.521 283.639 C 164.652 283.982,165.188 284.118,166.407 284.118 C 167.343 284.118,168.259 284.268,168.442 284.452 C 168.898 284.907,188.328 284.904,188.784 284.448 C 188.966 284.267,189.880 284.118,190.816 284.118 C 192.034 284.118,192.570 283.982,192.702 283.639 C 192.830 283.304,193.354 283.160,194.448 283.160 C 195.307 283.160,196.010 283.017,196.010 282.841 C 196.010 282.666,196.728 282.522,197.606 282.522 C 198.812 282.522,199.202 282.405,199.202 282.043 C 199.202 281.681,199.592 281.564,200.798 281.564 C 201.676 281.564,202.394 281.421,202.394 281.245 C 202.394 281.069,202.897 280.926,203.512 280.926 C 204.292 280.926,204.629 280.781,204.629 280.447 C 204.629 280.101,204.984 279.968,205.906 279.968 C 206.608 279.968,207.183 279.824,207.183 279.649 C 207.183 279.473,207.475 279.330,207.831 279.330 C 208.188 279.330,208.562 279.114,208.663 278.851 C 208.765 278.587,209.191 278.372,209.611 278.372 C 210.031 278.372,210.375 278.228,210.375 278.053 C 210.375 277.877,210.811 277.733,211.343 277.733 C 211.909 277.733,212.387 277.535,212.494 277.255 C 212.595 276.991,213.022 276.776,213.442 276.776 C 213.862 276.776,214.206 276.632,214.206 276.457 C 214.206 276.281,214.498 276.137,214.854 276.137 C 215.211 276.137,215.586 275.922,215.687 275.658 C 215.788 275.395,216.070 275.180,216.315 275.180 C 216.560 275.180,216.760 275.036,216.760 274.860 C 216.760 274.685,217.052 274.541,217.408 274.541 C 217.765 274.541,218.139 274.326,218.241 274.062 C 218.342 273.799,218.706 273.583,219.051 273.583 C 219.729 273.583,220.591 272.882,220.591 272.329 C 220.591 272.141,220.950 271.987,221.389 271.987 C 221.828 271.987,222.187 271.844,222.187 271.668 C 222.187 271.492,222.454 271.349,222.781 271.349 C 223.107 271.349,223.644 270.990,223.974 270.551 C 224.304 270.111,224.897 269.753,225.295 269.753 C 225.724 269.753,226.018 269.558,226.018 269.274 C 226.018 269.010,226.171 268.795,226.360 268.795 C 226.802 268.795,227.614 267.983,227.614 267.541 C 227.614 267.353,227.973 267.199,228.412 267.199 C 228.851 267.199,229.210 267.055,229.210 266.879 C 229.210 266.704,229.364 266.560,229.552 266.560 C 229.994 266.560,230.806 265.748,230.806 265.306 C 230.806 265.118,231.108 264.964,231.478 264.964 C 231.878 264.964,232.908 264.189,234.024 263.049 C 235.054 261.995,236.081 261.131,236.305 261.128 C 236.529 261.125,237.050 260.766,237.464 260.330 C 237.877 259.894,238.344 259.537,238.501 259.537 C 238.658 259.537,238.787 259.346,238.787 259.112 C 238.787 258.879,239.146 258.495,239.585 258.260 C 240.024 258.025,240.383 257.666,240.383 257.462 C 240.383 257.258,240.742 256.899,241.181 256.664 C 241.620 256.429,241.979 256.107,241.979 255.949 C 241.979 255.551,242.817 254.749,243.233 254.749 C 243.422 254.749,243.575 254.533,243.575 254.270 C 243.575 254.006,243.719 253.791,243.895 253.791 C 244.070 253.791,244.214 253.432,244.214 252.993 C 244.214 252.554,244.368 252.195,244.556 252.195 C 244.998 252.195,245.810 251.383,245.810 250.941 C 245.810 250.752,245.964 250.599,246.152 250.599 C 246.594 250.599,247.406 249.786,247.406 249.344 C 247.406 249.156,247.560 249.002,247.748 249.002 C 248.312 249.002,249.002 248.136,249.002 247.429 C 249.002 247.054,249.210 246.768,249.481 246.768 C 249.745 246.768,249.960 246.614,249.960 246.426 C 249.960 245.984,250.772 245.172,251.214 245.172 C 251.402 245.172,251.556 244.875,251.556 244.512 C 251.556 244.149,252.059 243.378,252.674 242.798 C 253.288 242.218,253.791 241.438,253.791 241.064 C 253.791 240.689,253.955 240.383,254.155 240.383 C 254.645 240.383,255.364 239.397,255.377 238.707 C 255.383 238.400,255.603 238.148,255.866 238.148 C 256.129 238.148,256.345 237.933,256.345 237.670 C 256.345 237.406,256.488 237.191,256.664 237.191 C 256.840 237.191,256.983 236.832,256.983 236.393 C 256.983 235.896,257.164 235.595,257.462 235.595 C 257.747 235.595,257.941 235.301,257.941 234.872 C 257.941 234.474,258.299 233.881,258.739 233.551 C 259.178 233.221,259.537 232.684,259.537 232.358 C 259.537 232.031,259.681 231.764,259.856 231.764 C 260.032 231.764,260.176 231.405,260.176 230.966 C 260.176 230.469,260.356 230.168,260.654 230.168 C 260.918 230.168,261.133 229.952,261.133 229.689 C 261.133 229.425,261.277 229.210,261.453 229.210 C 261.628 229.210,261.772 228.851,261.772 228.412 C 261.772 227.915,261.953 227.614,262.251 227.614 C 262.549 227.614,262.729 227.312,262.729 226.816 C 262.729 226.377,262.873 226.018,263.049 226.018 C 263.224 226.018,263.368 225.658,263.368 225.219 C 263.368 224.781,263.512 224.421,263.687 224.421 C 263.863 224.421,264.006 224.149,264.006 223.817 C 264.006 223.485,264.222 223.130,264.485 223.029 C 264.749 222.928,264.964 222.553,264.964 222.197 C 264.964 221.840,265.108 221.548,265.283 221.548 C 265.459 221.548,265.603 221.205,265.603 220.784 C 265.603 220.364,265.818 219.938,266.081 219.837 C 266.345 219.736,266.560 219.370,266.560 219.023 C 266.560 218.677,266.704 218.305,266.879 218.196 C 267.055 218.088,267.199 217.505,267.199 216.901 C 267.199 216.137,267.345 215.802,267.678 215.802 C 267.976 215.802,268.156 215.501,268.156 215.004 C 268.156 214.565,268.300 214.206,268.476 214.206 C 268.651 214.206,268.795 213.703,268.795 213.089 C 268.795 212.308,268.939 211.971,269.274 211.971 C 269.572 211.971,269.753 211.670,269.753 211.173 C 269.753 210.734,269.896 210.375,270.072 210.375 C 270.247 210.375,270.391 209.800,270.391 209.098 C 270.391 208.176,270.524 207.821,270.870 207.821 C 271.204 207.821,271.349 207.484,271.349 206.704 C 271.349 206.089,271.492 205.587,271.668 205.587 C 271.844 205.587,271.987 205.012,271.987 204.310 C 271.987 203.387,272.120 203.033,272.466 203.033 C 272.820 203.033,272.945 202.662,272.945 201.615 C 272.945 200.835,273.089 200.109,273.264 200.000 C 273.440 199.891,273.583 199.180,273.583 198.419 C 273.583 197.484,273.739 196.976,274.062 196.852 C 274.390 196.726,274.541 196.213,274.541 195.222 C 274.541 194.426,274.685 193.775,274.860 193.775 C 275.036 193.775,275.180 193.431,275.180 193.011 C 275.180 192.591,275.395 192.164,275.658 192.063 C 275.959 191.948,276.137 191.460,276.137 190.752 C 276.137 190.132,276.259 189.625,276.407 189.625 C 276.690 189.625,277.333 184.111,277.616 179.253 C 277.708 177.675,277.921 176.298,278.090 176.194 C 278.531 175.921,278.510 149.093,278.069 148.651 C 277.884 148.467,277.733 147.191,277.733 145.816 C 277.733 143.888,277.624 143.274,277.255 143.132 C 276.893 142.993,276.776 142.409,276.776 140.748 C 276.776 139.494,276.638 138.547,276.457 138.547 C 276.281 138.547,276.137 137.825,276.137 136.941 C 276.137 135.808,275.996 135.281,275.658 135.151 C 275.323 135.023,275.180 134.500,275.180 133.406 C 275.180 132.546,275.036 131.844,274.860 131.844 C 274.685 131.844,274.541 131.193,274.541 130.397 C 274.541 129.406,274.390 128.893,274.062 128.767 C 273.767 128.653,273.583 128.168,273.583 127.500 C 273.583 126.904,273.440 126.417,273.264 126.417 C 273.089 126.417,272.945 125.909,272.945 125.289 C 272.945 124.582,272.767 124.094,272.466 123.978 C 272.171 123.865,271.987 123.380,271.987 122.711 C 271.987 121.961,272.135 121.628,272.466 121.628 C 272.729 121.628,272.945 121.474,272.945 121.286 C 272.945 120.844,273.757 120.032,274.199 120.032 C 274.387 120.032,274.541 119.878,274.541 119.690 C 274.541 119.127,275.408 118.436,276.114 118.436 C 276.489 118.436,276.776 118.228,276.776 117.957 C 276.776 117.694,276.926 117.478,277.111 117.478 C 277.548 117.478,285.395 109.631,285.395 109.194 C 285.395 109.009,285.754 108.859,286.193 108.859 C 286.632 108.859,286.991 108.715,286.991 108.540 C 286.991 108.364,287.283 108.220,287.640 108.220 C 287.996 108.220,288.371 108.005,288.472 107.741 C 288.573 107.478,288.856 107.263,289.100 107.263 C 289.345 107.263,289.545 107.119,289.545 106.943 C 289.545 106.768,289.812 106.624,290.139 106.624 C 290.465 106.624,291.002 106.265,291.332 105.826 C 291.662 105.387,292.113 105.028,292.334 105.028 C 292.556 105.028,292.737 104.812,292.737 104.549 C 292.737 104.278,293.024 104.070,293.399 104.070 C 294.105 104.070,294.972 103.379,294.972 102.816 C 294.972 102.628,295.188 102.474,295.451 102.474 C 295.735 102.474,295.930 102.181,295.930 101.752 C 295.930 101.354,296.288 100.760,296.728 100.430 C 297.302 99.999,297.526 99.530,297.526 98.758 C 297.526 98.168,297.670 97.686,297.845 97.686 C 298.021 97.686,298.164 97.244,298.164 96.705 C 298.164 96.166,298.380 95.509,298.643 95.246 C 298.962 94.927,299.122 94.130,299.122 92.864 C 299.122 91.467,298.995 90.913,298.643 90.778 C 298.308 90.649,298.164 90.126,298.164 89.032 C 298.164 88.173,298.021 87.470,297.845 87.470 C 297.670 87.470,297.526 87.178,297.526 86.822 C 297.526 86.465,297.310 86.090,297.047 85.989 C 296.784 85.888,296.564 85.570,296.558 85.281 C 296.545 84.619,295.816 83.639,295.336 83.639 C 295.136 83.639,294.972 83.333,294.972 82.959 C 294.972 82.584,294.469 81.804,293.855 81.224 C 293.240 80.645,292.737 79.874,292.737 79.511 C 292.737 79.137,292.530 78.851,292.259 78.851 C 291.995 78.851,291.780 78.635,291.780 78.372 C 291.780 78.109,291.636 77.893,291.460 77.893 C 291.285 77.893,291.141 77.606,291.141 77.255 C 291.141 76.900,290.928 76.616,290.662 76.616 C 290.399 76.616,290.184 76.462,290.184 76.274 C 290.184 75.832,289.371 75.020,288.929 75.020 C 288.741 75.020,288.587 74.866,288.587 74.678 C 288.587 74.236,287.775 73.424,287.333 73.424 C 287.145 73.424,286.991 73.270,286.991 73.082 C 286.991 72.518,286.125 71.828,285.418 71.828 C 285.043 71.828,284.757 71.620,284.757 71.349 C 284.757 71.085,284.541 70.870,284.278 70.870 C 284.014 70.870,283.799 70.726,283.799 70.551 C 283.799 70.375,283.507 70.231,283.150 70.231 C 282.794 70.231,282.419 70.016,282.318 69.753 C 282.189 69.417,281.666 69.274,280.572 69.274 C 279.713 69.274,279.010 69.130,279.010 68.955 C 279.010 68.779,278.301 68.635,277.433 68.635 C 276.566 68.635,275.767 68.779,275.658 68.955 C 275.550 69.130,274.771 69.274,273.929 69.274 C 272.666 69.274,272.290 69.415,271.797 70.072 C 271.466 70.511,270.873 70.870,270.475 70.870 C 270.046 70.870,269.753 71.064,269.753 71.349 C 269.753 71.647,269.451 71.828,268.955 71.828 C 268.516 71.828,268.156 71.971,268.156 72.147 C 268.156 72.322,267.797 72.466,267.358 72.466 C 266.862 72.466,266.560 72.647,266.560 72.945 C 266.560 73.208,266.345 73.424,266.081 73.424 C 265.818 73.424,265.603 73.567,265.603 73.743 C 265.603 73.919,265.315 74.062,264.964 74.062 C 264.609 74.062,264.326 74.275,264.326 74.541 C 264.326 74.804,264.110 75.020,263.847 75.020 C 263.581 75.020,263.368 75.304,263.368 75.658 C 263.368 76.010,263.224 76.297,263.049 76.297 C 262.873 76.297,262.729 76.512,262.729 76.776 C 262.729 77.039,262.514 77.255,262.251 77.255 C 261.953 77.255,261.772 77.556,261.772 78.053 C 261.772 78.492,261.628 78.851,261.453 78.851 C 261.277 78.851,261.133 79.210,261.133 79.649 C 261.133 80.088,260.979 80.447,260.791 80.447 C 260.349 80.447,259.537 81.259,259.537 81.701 C 259.537 81.889,259.383 82.043,259.195 82.043 C 258.753 82.043,257.941 82.855,257.941 83.297 C 257.941 83.485,257.787 83.639,257.599 83.639 C 257.157 83.639,256.345 84.451,256.345 84.893 C 256.345 85.082,256.043 85.235,255.673 85.235 C 255.273 85.235,254.243 86.011,253.127 87.151 C 251.434 88.881,249.960 89.624,249.960 88.747 C 249.960 88.571,249.745 88.428,249.481 88.428 C 249.218 88.428,249.002 88.274,249.002 88.086 C 249.002 87.644,248.190 86.832,247.748 86.832 C 247.560 86.832,247.406 86.678,247.406 86.490 C 247.406 85.926,246.540 85.235,245.833 85.235 C 245.458 85.235,245.172 85.028,245.172 84.757 C 245.172 84.493,244.956 84.278,244.693 84.278 C 244.429 84.278,244.214 84.134,244.214 83.958 C 244.214 83.783,243.855 83.639,243.416 83.639 C 242.977 83.639,242.618 83.485,242.618 83.297 C 242.618 82.806,241.785 82.043,241.249 82.043 C 240.997 82.043,240.522 81.684,240.192 81.245 C 239.863 80.806,239.412 80.447,239.190 80.447 C 238.968 80.447,238.787 80.231,238.787 79.968 C 238.787 79.705,239.002 79.489,239.266 79.489 C 239.564 79.489,239.745 79.188,239.745 78.691 C 239.745 78.252,239.888 77.893,240.064 77.893 C 240.239 77.893,240.383 77.534,240.383 77.095 C 240.383 76.656,240.537 76.297,240.725 76.297 C 241.288 76.297,241.979 75.430,241.979 74.724 C 241.979 74.360,242.123 74.062,242.298 74.062 C 242.474 74.062,242.618 73.703,242.618 73.264 C 242.618 72.768,242.799 72.466,243.097 72.466 C 243.395 72.466,243.575 72.165,243.575 71.668 C 243.575 71.229,243.719 70.870,243.895 70.870 C 244.070 70.870,244.214 70.511,244.214 70.072 C 244.214 69.633,244.368 69.274,244.556 69.274 C 244.998 69.274,245.810 68.462,245.810 68.020 C 245.810 67.831,246.169 67.678,246.608 67.678 C 247.247 67.678,247.406 67.518,247.406 66.879 C 247.406 66.441,247.560 66.081,247.748 66.081 C 248.190 66.081,249.002 65.269,249.002 64.827 C 249.002 64.639,249.218 64.485,249.481 64.485 C 249.766 64.485,249.960 64.192,249.960 63.763 C 249.960 63.365,250.319 62.771,250.758 62.441 C 251.415 61.948,251.556 61.571,251.556 60.309 C 251.556 59.466,251.700 58.688,251.875 58.579 C 252.064 58.463,252.195 56.554,252.195 53.932 C 252.195 51.178,252.073 49.481,251.875 49.481 C 251.700 49.481,251.556 48.978,251.556 48.364 C 251.556 47.584,251.412 47.247,251.077 47.247 C 250.814 47.247,250.599 47.031,250.599 46.768 C 250.599 46.504,250.465 46.289,250.302 46.289 C 250.138 46.289,249.959 45.966,249.902 45.571 C 249.837 45.109,249.544 44.816,249.082 44.750 C 248.687 44.694,248.364 44.515,248.364 44.351 C 248.364 44.188,248.148 44.054,247.885 44.054 C 247.622 44.054,247.406 43.900,247.406 43.712 C 247.406 43.149,246.540 42.458,245.833 42.458 C 245.458 42.458,245.172 42.251,245.172 41.979 C 245.172 41.716,244.956 41.500,244.693 41.500 C 244.429 41.500,244.214 41.357,244.214 41.181 C 244.214 41.006,243.855 40.862,243.416 40.862 C 242.977 40.862,242.618 40.708,242.618 40.520 C 242.618 39.957,241.751 39.266,241.044 39.266 C 240.669 39.266,240.383 39.058,240.383 38.787 C 240.383 38.524,240.168 38.308,239.904 38.308 C 239.641 38.308,239.425 38.164,239.425 37.989 C 239.425 37.813,239.147 37.670,238.806 37.670 C 238.465 37.670,238.100 37.530,237.994 37.359 C 237.888 37.188,237.269 36.817,236.619 36.534 C 235.968 36.251,235.148 35.861,234.796 35.666 C 233.266 34.819,223.783 34.053,223.783 34.777 M233.040 47.015 C 235.189 48.084,237.857 49.910,240.673 52.241 C 241.757 53.138,241.009 57.405,239.521 58.810 C 236.888 61.295,236.629 61.613,235.681 63.528 C 235.290 64.318,234.634 65.539,234.223 66.241 C 233.812 66.943,232.809 68.767,231.995 70.293 C 230.166 73.723,229.732 74.497,229.529 74.701 C 229.441 74.789,229.084 75.435,228.734 76.137 C 228.385 76.840,228.025 77.486,227.936 77.574 C 227.847 77.662,227.489 78.308,227.141 79.010 C 225.190 82.953,224.463 83.696,223.220 83.018 C 221.610 82.140,213.250 80.128,211.213 80.128 C 208.427 80.128,208.191 79.556,209.789 76.679 C 210.344 75.679,211.039 74.429,211.333 73.903 C 211.627 73.376,212.345 72.083,212.929 71.030 C 213.513 69.976,214.230 68.683,214.522 68.156 C 214.814 67.630,215.760 65.906,216.625 64.326 C 217.489 62.745,218.363 61.165,218.566 60.814 C 218.769 60.463,219.279 59.529,219.700 58.739 C 220.121 57.949,220.908 56.512,221.450 55.547 C 221.991 54.581,222.828 52.642,223.309 51.237 C 225.475 44.908,227.252 44.137,233.040 47.015 M213.782 82.078 C 215.041 82.322,216.178 82.630,216.309 82.761 C 216.440 82.893,216.891 83.001,217.312 83.001 C 218.080 83.001,220.701 83.727,222.187 84.351 C 223.673 84.976,224.897 85.486,225.698 85.815 C 228.655 87.031,229.210 87.302,229.210 87.532 C 229.210 87.673,229.427 87.789,229.692 87.789 C 230.236 87.789,235.320 90.864,237.510 92.517 C 240.577 94.833,241.585 95.707,244.382 98.484 C 247.494 101.572,251.237 105.774,251.237 106.180 C 251.237 106.317,251.572 106.797,251.981 107.245 C 252.606 107.931,253.651 109.538,256.250 113.814 C 257.244 115.449,260.814 123.070,260.814 123.557 C 260.814 123.730,260.951 124.121,261.118 124.426 C 261.662 125.418,262.325 127.176,262.893 129.130 C 263.199 130.184,263.575 131.182,263.728 131.349 C 263.881 131.516,264.006 132.056,264.006 132.550 C 264.006 133.044,264.133 133.698,264.288 134.003 C 264.726 134.864,265.331 137.282,265.506 138.867 C 265.593 139.657,265.794 140.440,265.953 140.607 C 266.111 140.773,266.241 141.518,266.241 142.262 C 266.241 143.005,266.401 144.018,266.596 144.512 C 267.536 146.892,268.243 167.863,267.563 173.184 C 267.383 174.589,267.070 176.959,266.866 178.452 C 266.662 179.944,266.422 182.027,266.333 183.081 C 266.244 184.134,266.044 185.132,265.887 185.299 C 265.731 185.466,265.597 186.184,265.591 186.895 C 265.585 187.607,265.375 188.547,265.124 188.986 C 264.873 189.425,264.662 190.315,264.656 190.963 C 264.650 191.611,264.501 192.230,264.326 192.338 C 264.150 192.447,264.006 193.093,264.006 193.775 C 264.006 194.457,263.875 195.095,263.715 195.194 C 263.555 195.293,263.327 195.948,263.208 196.648 C 263.090 197.349,262.862 198.003,262.702 198.102 C 262.541 198.201,262.406 198.597,262.400 198.981 C 262.389 199.732,261.362 202.910,261.021 203.252 C 260.907 203.365,260.814 203.785,260.814 204.184 C 260.814 204.584,260.681 204.992,260.519 205.093 C 260.357 205.193,260.124 205.735,260.000 206.298 C 259.876 206.861,259.667 207.542,259.534 207.811 C 259.296 208.292,259.150 208.634,258.090 211.173 C 257.524 212.529,257.159 213.426,256.855 214.206 C 256.752 214.469,256.539 214.900,256.381 215.164 C 256.224 215.427,255.332 217.223,254.400 219.154 C 253.468 221.085,252.610 222.737,252.493 222.825 C 252.376 222.913,252.180 223.308,252.057 223.703 C 251.933 224.098,251.698 224.421,251.535 224.421 C 251.371 224.421,251.237 224.640,251.237 224.907 C 251.237 225.173,250.867 225.978,250.415 226.694 C 248.702 229.408,248.048 230.770,248.364 230.966 C 248.999 231.358,248.662 232.007,247.725 232.195 C 247.199 232.300,246.768 232.543,246.768 232.735 C 246.768 232.926,246.409 233.554,245.970 234.130 C 245.531 234.705,245.169 235.306,245.165 235.465 C 245.162 235.624,244.659 236.327,244.048 237.028 C 243.437 237.728,242.937 238.452,242.937 238.636 C 242.937 238.820,242.219 239.678,241.341 240.543 C 240.463 241.407,239.745 242.275,239.745 242.470 C 239.745 242.967,227.080 255.630,225.706 256.508 C 225.087 256.903,224.233 257.602,223.807 258.062 C 223.381 258.522,222.848 258.899,222.621 258.899 C 222.394 258.899,221.737 259.303,221.160 259.798 C 220.584 260.292,219.539 261.047,218.839 261.474 C 218.139 261.901,217.333 262.394,217.047 262.570 C 214.878 263.902,210.882 266.210,210.375 266.423 C 210.112 266.534,208.819 267.132,207.502 267.752 C 206.185 268.372,204.820 268.994,204.469 269.135 C 204.118 269.275,203.328 269.596,202.713 269.847 C 200.415 270.788,199.001 271.291,197.606 271.667 C 196.816 271.880,195.820 272.191,195.394 272.359 C 194.052 272.887,191.378 273.390,185.634 274.195 C 182.781 274.595,173.405 274.589,171.109 274.186 C 170.144 274.016,168.635 273.757,167.757 273.611 C 164.631 273.088,162.668 272.612,162.358 272.302 C 162.185 272.129,161.649 271.987,161.168 271.987 C 160.687 271.987,160.204 271.844,160.096 271.668 C 159.987 271.492,159.677 271.349,159.407 271.349 C 159.137 271.349,158.463 271.147,157.909 270.900 C 157.356 270.653,156.216 270.201,155.377 269.895 C 154.537 269.589,153.774 269.216,153.682 269.067 C 153.589 268.917,153.282 268.795,152.999 268.795 C 152.716 268.795,152.258 268.595,151.980 268.352 C 151.703 268.108,150.758 267.526,149.880 267.058 C 149.002 266.590,147.997 266.035,147.646 265.825 C 146.770 265.301,142.575 262.350,142.378 262.118 C 142.291 262.016,141.500 261.358,140.623 260.658 C 138.553 259.006,134.801 255.258,133.591 253.633 C 133.069 252.932,132.211 251.878,131.684 251.291 C 131.157 250.703,130.595 249.984,130.434 249.692 C 130.273 249.401,129.662 248.573,129.077 247.852 C 128.492 247.132,128.013 246.443,128.013 246.321 C 128.013 246.198,127.537 245.351,126.956 244.438 C 126.375 243.525,125.798 242.562,125.675 242.298 C 125.551 242.035,125.017 241.101,124.487 240.223 C 123.957 239.346,123.440 238.412,123.339 238.148 C 122.795 236.728,122.214 235.600,121.939 235.430 C 121.768 235.324,121.628 234.957,121.628 234.614 C 121.628 234.271,121.505 233.740,121.354 233.435 C 121.204 233.131,120.870 232.450,120.612 231.923 C 120.354 231.397,119.960 230.319,119.737 229.529 C 119.514 228.739,119.225 227.877,119.095 227.614 C 118.964 227.350,118.606 226.273,118.299 225.219 C 117.991 224.166,117.587 222.945,117.402 222.506 C 117.082 221.751,116.866 220.824,116.262 217.626 C 116.120 216.873,115.906 216.100,115.787 215.907 C 115.668 215.714,115.412 214.570,115.217 213.365 C 115.023 212.159,114.663 209.952,114.417 208.460 C 113.400 202.296,113.560 180.260,114.652 176.028 C 115.016 174.619,115.788 171.268,116.189 169.354 C 116.336 168.651,116.697 167.071,116.990 165.842 C 117.283 164.613,117.653 162.995,117.811 162.246 C 117.969 161.497,118.247 160.609,118.427 160.272 C 118.607 159.935,118.755 159.360,118.755 158.995 C 118.755 158.630,118.881 158.082,119.034 157.777 C 119.188 157.472,119.562 156.361,119.864 155.307 C 120.167 154.254,120.544 153.142,120.702 152.838 C 120.860 152.533,120.990 152.023,120.990 151.704 C 120.990 151.386,121.110 150.989,121.256 150.822 C 121.403 150.655,121.773 149.800,122.079 148.923 C 122.385 148.045,122.758 147.039,122.908 146.688 C 123.058 146.337,123.421 145.475,123.713 144.773 C 126.208 138.787,129.749 131.907,132.916 126.895 C 133.914 125.315,134.908 123.741,135.123 123.397 C 135.338 123.054,135.694 122.576,135.914 122.337 C 136.133 122.098,136.313 121.804,136.314 121.685 C 136.314 121.566,136.745 120.966,137.271 120.351 C 137.796 119.737,138.227 119.136,138.228 119.017 C 138.228 118.898,138.413 118.611,138.639 118.379 C 138.865 118.147,139.471 117.382,139.986 116.680 C 143.019 112.541,151.771 103.275,154.245 101.582 C 154.654 101.302,155.275 100.765,155.626 100.388 C 155.978 100.011,156.840 99.286,157.542 98.776 C 158.244 98.266,158.891 97.764,158.978 97.660 C 159.407 97.153,163.742 94.174,164.051 94.174 C 164.246 94.174,164.405 94.063,164.405 93.927 C 164.405 93.792,164.944 93.398,165.603 93.053 C 166.261 92.707,166.872 92.336,166.959 92.228 C 167.200 91.931,170.996 89.839,173.344 88.708 C 174.485 88.159,176.115 87.368,176.965 86.951 C 177.815 86.534,178.756 86.193,179.056 86.193 C 179.356 86.193,179.737 86.070,179.904 85.918 C 180.071 85.767,180.998 85.389,181.963 85.077 C 182.929 84.765,184.006 84.402,184.358 84.269 C 185.355 83.894,187.742 83.245,189.146 82.968 C 196.694 81.478,196.659 81.481,204.150 81.559 C 208.797 81.607,212.333 81.797,213.782 82.078 M273.903 82.325 C 273.903 82.819,275.074 82.936,276.574 82.593 C 278.361 82.184,279.709 82.944,282.622 86.001 C 285.948 89.492,287.283 91.925,286.514 93.099 C 286.244 93.511,286.055 94.275,286.095 94.797 C 286.189 96.033,285.256 97.016,282.734 98.339 C 280.951 99.274,278.312 101.298,276.101 103.426 C 274.431 105.033,268.287 110.714,267.199 111.658 C 266.584 112.190,264.932 113.717,263.528 115.051 C 260.521 117.905,260.201 117.974,259.289 115.962 C 258.314 113.812,257.499 112.448,254.509 107.964 C 253.061 105.791,251.875 103.915,251.875 103.794 C 251.875 103.525,257.980 97.736,263.705 92.578 C 268.054 88.658,269.398 87.200,270.270 85.455 C 271.523 82.948,273.903 80.898,273.903 82.325 M287.071 96.301 C 286.852 96.389,286.672 96.617,286.672 96.806 C 286.672 97.267,284.695 99.012,284.462 98.757 C 284.361 98.646,284.457 98.492,284.677 98.413 C 284.896 98.335,285.076 98.120,285.076 97.935 C 285.076 97.476,286.615 96.083,287.087 96.115 C 287.367 96.133,287.363 96.183,287.071 96.301 M172.865 115.992 C 159.042 120.573,161.007 140.899,175.276 140.935 C 184.846 140.959,191.217 130.101,186.666 121.524 C 184.222 116.919,177.817 114.351,172.865 115.992 M174.174 120.002 C 177.855 121.674,178.142 126.953,174.657 128.912 C 169.539 131.788,164.440 125.110,168.628 121.016 C 170.292 119.389,172.098 119.059,174.174 120.002 M232.055 135.994 C 217.590 138.471,219.222 160.415,233.871 160.415 C 248.053 160.415,250.320 138.453,236.375 136.158 C 233.971 135.762,233.512 135.745,232.055 135.994 M234.350 140.549 C 238.405 143.258,236.494 149.774,231.645 149.774 C 228.089 149.774,225.805 146.403,226.970 142.874 C 227.871 140.142,231.860 138.886,234.350 140.549 " stroke="none" fill="#0b0905" fill-rule="evenodd"></path><path id="path1" d="M221.849 56.473 C 221.596 56.743,221.235 57.255,221.047 57.612 C 220.859 57.968,220.344 58.907,219.903 59.697 C 216.319 66.105,215.267 68.018,214.544 69.433 C 214.186 70.136,213.466 71.429,212.944 72.306 C 212.422 73.184,211.697 74.477,211.333 75.180 C 210.970 75.882,210.400 76.887,210.068 77.414 C 208.984 79.133,208.980 79.130,213.727 79.774 C 216.338 80.128,219.090 80.774,219.457 81.119 C 219.624 81.276,220.073 81.405,220.456 81.405 C 220.838 81.405,221.667 81.620,222.297 81.883 C 224.103 82.638,224.578 82.508,225.219 81.085 C 225.536 80.383,225.917 79.808,226.066 79.808 C 226.215 79.808,226.337 79.550,226.337 79.234 C 226.337 78.918,226.463 78.523,226.617 78.356 C 226.771 78.189,227.369 77.191,227.946 76.137 C 228.523 75.084,229.235 73.791,229.529 73.264 C 229.823 72.737,230.541 71.445,231.126 70.391 C 231.710 69.338,232.547 67.829,232.986 67.039 C 233.425 66.249,234.023 65.172,234.316 64.645 C 235.406 62.680,235.345 62.318,233.883 62.074 C 233.156 61.953,231.772 61.458,230.806 60.974 C 229.840 60.490,227.942 59.634,226.587 59.072 C 225.061 58.439,223.779 57.657,223.216 57.016 C 222.407 56.095,222.259 56.036,221.849 56.473 M198.404 82.209 C 198.228 82.286,196.864 82.491,195.371 82.666 C 190.676 83.214,186.135 84.150,185.608 84.677 C 185.476 84.809,184.970 84.916,184.483 84.916 C 183.996 84.916,183.515 85.049,183.415 85.211 C 183.315 85.373,182.772 85.607,182.210 85.730 C 181.647 85.854,180.966 86.069,180.697 86.208 C 180.428 86.348,179.202 86.866,177.973 87.360 C 176.744 87.854,175.120 88.584,174.365 88.982 C 173.609 89.379,172.783 89.705,172.529 89.705 C 172.275 89.705,172.067 89.821,172.067 89.963 C 172.067 90.104,171.464 90.486,170.728 90.811 C 169.175 91.496,165.253 93.891,165.097 94.249 C 165.039 94.383,164.799 94.493,164.565 94.493 C 164.331 94.493,164.092 94.601,164.033 94.733 C 163.974 94.864,162.788 95.751,161.397 96.704 C 160.005 97.657,158.634 98.662,158.349 98.939 C 158.065 99.215,157.192 99.941,156.410 100.551 C 154.530 102.018,144.110 112.455,142.697 114.286 C 141.587 115.725,141.106 116.322,140.064 117.554 C 139.757 117.917,139.505 118.302,139.505 118.408 C 139.505 118.515,139.005 119.175,138.394 119.876 C 137.783 120.576,137.280 121.317,137.277 121.522 C 137.273 121.727,137.163 121.942,137.031 122.001 C 136.727 122.136,134.078 125.989,134.078 126.296 C 134.078 126.422,133.877 126.753,133.631 127.030 C 133.385 127.307,132.789 128.252,132.306 129.130 C 131.823 130.008,131.341 130.798,131.236 130.886 C 131.031 131.057,125.667 141.892,124.993 143.496 C 124.184 145.421,123.281 147.704,122.592 149.561 C 122.462 149.912,122.120 150.743,121.832 151.407 C 121.544 152.072,121.309 152.828,121.309 153.088 C 121.309 153.348,121.184 153.810,121.032 154.114 C 120.518 155.146,119.953 156.898,119.797 157.944 C 119.712 158.516,119.514 159.063,119.358 159.160 C 119.202 159.256,119.074 159.668,119.074 160.076 C 119.074 160.483,118.859 161.332,118.595 161.962 C 118.332 162.592,118.117 163.535,118.117 164.057 C 118.117 164.579,117.973 165.095,117.797 165.204 C 117.622 165.312,117.478 165.976,117.478 166.680 C 117.478 167.383,117.339 168.219,117.169 168.537 C 116.657 169.494,116.636 173.021,117.140 173.333 C 117.742 173.704,123.699 174.544,127.374 174.775 C 134.713 175.237,148.172 177.807,155.786 180.201 C 160.261 181.607,170.640 185.364,173.535 186.624 C 174.079 186.861,175.823 187.551,177.412 188.157 C 179.000 188.763,180.926 189.541,181.690 189.885 C 182.455 190.230,185.020 191.336,187.390 192.343 C 194.281 195.271,207.758 201.993,213.567 205.400 C 214.533 205.967,216.257 206.911,217.398 207.499 C 218.540 208.087,220.009 208.903,220.664 209.312 C 221.319 209.721,221.924 210.056,222.010 210.056 C 222.927 210.056,239.541 221.096,240.702 222.477 C 240.790 222.581,241.437 223.151,242.139 223.743 C 242.841 224.335,244.365 225.733,245.526 226.851 L 247.636 228.882 248.479 228.158 C 248.942 227.760,249.322 227.324,249.322 227.189 C 249.322 227.055,249.824 226.159,250.439 225.198 C 251.053 224.237,251.556 223.328,251.556 223.177 C 251.556 223.027,251.772 222.725,252.035 222.506 C 252.298 222.287,252.514 221.851,252.514 221.536 C 252.514 221.221,252.622 220.915,252.753 220.857 C 253.100 220.702,254.110 218.703,254.110 218.170 C 254.110 217.921,254.254 217.717,254.429 217.717 C 254.605 217.717,254.749 217.448,254.749 217.118 C 254.749 216.788,254.964 216.340,255.227 216.121 C 255.491 215.903,255.706 215.454,255.706 215.125 C 255.706 214.795,255.850 214.525,256.026 214.525 C 256.201 214.525,256.345 214.276,256.345 213.971 C 256.345 213.666,256.687 212.697,257.106 211.816 C 257.774 210.409,258.410 208.865,259.212 206.704 C 259.342 206.353,259.684 205.522,259.972 204.857 C 260.259 204.193,260.495 203.437,260.495 203.177 C 260.495 202.917,260.624 202.455,260.782 202.150 C 260.940 201.846,261.320 200.734,261.625 199.681 C 261.930 198.627,262.293 197.478,262.431 197.127 C 262.569 196.776,262.753 196.129,262.842 195.690 C 263.128 194.262,263.735 192.034,264.016 191.381 C 264.166 191.030,264.359 190.168,264.444 189.465 C 264.530 188.763,264.839 187.183,265.131 185.954 C 265.423 184.725,265.770 182.413,265.902 180.816 C 266.034 179.219,266.246 177.744,266.373 177.539 C 267.542 175.647,267.545 148.699,266.376 146.808 C 266.280 146.653,266.075 145.557,265.919 144.372 C 265.495 141.135,264.979 138.533,264.634 137.889 C 264.464 137.572,264.326 136.870,264.326 136.330 C 264.326 135.789,264.202 135.097,264.051 134.792 C 263.576 133.831,262.729 130.986,262.729 130.348 C 262.729 130.012,262.606 129.600,262.455 129.433 C 262.304 129.267,261.916 128.340,261.592 127.374 C 261.269 126.409,260.890 125.482,260.750 125.315 C 260.609 125.148,260.495 124.834,260.495 124.616 C 260.495 124.398,259.920 122.982,259.218 121.468 C 258.516 119.955,257.941 118.539,257.941 118.321 C 257.941 118.103,257.813 117.789,257.657 117.622 C 257.502 117.455,256.918 116.457,256.360 115.403 C 255.802 114.350,254.993 112.913,254.561 112.211 C 254.130 111.508,253.613 110.611,253.413 110.215 C 253.213 109.820,252.929 109.497,252.782 109.497 C 252.635 109.497,252.514 109.282,252.514 109.018 C 252.514 108.755,252.380 108.540,252.216 108.540 C 252.052 108.540,251.832 108.267,251.726 107.934 C 251.621 107.601,251.072 106.837,250.508 106.237 C 249.943 105.637,249.061 104.580,248.548 103.890 C 247.320 102.236,240.933 95.874,239.106 94.485 C 238.316 93.884,237.598 93.303,237.510 93.193 C 237.422 93.084,236.345 92.366,235.116 91.599 C 233.887 90.832,232.833 90.092,232.775 89.955 C 232.716 89.817,232.405 89.705,232.083 89.705 C 231.761 89.705,231.450 89.597,231.391 89.465 C 231.293 89.245,226.597 86.878,224.741 86.113 C 223.390 85.557,221.736 84.836,221.154 84.550 C 220.849 84.400,220.301 84.278,219.935 84.278 C 219.570 84.278,218.958 84.106,218.574 83.897 C 218.191 83.688,217.159 83.394,216.281 83.244 C 215.403 83.094,213.823 82.824,212.769 82.643 C 210.826 82.311,198.989 81.952,198.404 82.209 M265.575 91.700 C 264.604 92.622,263.027 94.079,262.072 94.938 C 257.038 99.464,252.833 103.575,252.833 103.970 C 252.833 104.216,253.385 105.165,254.058 106.079 C 255.935 108.625,257.829 111.736,259.591 115.164 C 260.429 116.793,260.755 116.833,262.192 115.483 C 264.436 113.373,270.285 107.965,271.971 106.441 C 277.170 101.740,278.642 99.942,277.316 99.912 C 276.729 99.898,275.035 98.317,273.930 96.751 C 273.382 95.974,272.026 94.591,270.918 93.677 C 269.810 92.763,268.718 91.567,268.491 91.020 C 267.936 89.678,267.631 89.749,265.575 91.700 M182.095 115.206 C 190.963 119.572,192.371 131.088,184.931 138.410 C 175.370 147.820,160.130 140.047,162.102 126.766 C 163.532 117.127,173.864 111.154,182.095 115.206 M239.585 135.530 C 249.843 140.564,249.857 156.163,239.608 160.923 C 227.855 166.382,216.224 154.044,221.870 142.106 C 225.024 135.438,233.207 132.400,239.585 135.530 " stroke="none" fill="#f3db2c" fill-rule="evenodd"></path><path id="path2" d="M202.637 81.950 C 203.035 82.026,203.609 82.023,203.914 81.943 C 204.220 81.863,203.895 81.801,203.192 81.804 C 202.490 81.808,202.240 81.873,202.637 81.950 M169.928 120.977 C 169.366 121.319,168.683 122.030,168.411 122.556 C 166.254 126.728,171.338 130.835,174.925 127.817 C 178.835 124.527,174.295 118.314,169.928 120.977 M173.434 121.105 C 177.502 122.827,176.030 128.819,171.683 128.236 C 167.835 127.720,167.190 122.712,170.763 121.095 C 171.872 120.594,172.229 120.595,173.434 121.105 M229.497 141.185 C 227.079 142.796,226.725 145.703,228.705 147.684 C 230.490 149.469,232.880 149.513,234.599 147.794 C 238.119 144.274,233.617 138.441,229.497 141.185 M234.190 142.187 C 236.883 144.879,234.537 149.035,230.728 148.321 C 227.936 147.797,226.983 143.873,229.198 142.024 C 230.834 140.658,232.723 140.720,234.190 142.187 M174.386 142.607 C 174.871 142.681,175.589 142.679,175.982 142.603 C 176.375 142.527,175.978 142.467,175.100 142.470 C 174.222 142.472,173.901 142.534,174.386 142.607 M220.352 148.284 C 220.355 148.986,220.421 149.236,220.497 148.839 C 220.573 148.442,220.571 147.867,220.491 147.562 C 220.411 147.257,220.348 147.582,220.352 148.284 M116.075 172.574 C 115.969 172.851,115.882 173.467,115.882 173.945 C 115.882 174.422,115.730 174.964,115.545 175.149 C 114.090 176.604,114.097 208.274,115.552 210.994 C 115.734 211.333,115.882 212.268,115.882 213.072 C 115.882 213.876,116.020 214.783,116.188 215.088 C 116.561 215.762,117.165 218.346,117.383 220.192 C 117.470 220.938,117.672 221.548,117.829 221.548 C 117.987 221.548,118.117 222.024,118.117 222.605 C 118.117 223.186,118.327 223.940,118.585 224.281 C 118.843 224.621,119.058 225.287,119.064 225.759 C 119.070 226.232,119.218 226.707,119.393 226.816 C 119.569 226.924,119.717 227.328,119.723 227.712 C 119.728 228.097,119.944 228.691,120.202 229.031 C 120.459 229.372,120.670 229.913,120.670 230.233 C 120.670 230.553,120.798 231.064,120.954 231.369 C 121.110 231.674,121.491 232.498,121.799 233.200 C 122.657 235.151,122.755 235.363,123.286 236.393 C 123.557 236.919,124.060 237.925,124.403 238.627 C 125.548 240.972,127.147 243.734,127.422 243.841 C 127.571 243.900,127.694 244.081,127.694 244.244 C 127.694 244.585,130.117 248.220,130.959 249.142 C 131.270 249.483,131.524 249.856,131.524 249.971 C 131.524 250.601,137.756 257.217,141.421 260.477 C 142.884 261.778,146.410 264.326,146.748 264.326 C 146.894 264.326,147.401 264.685,147.874 265.124 C 148.348 265.563,148.867 265.922,149.029 265.922 C 149.191 265.922,149.502 266.137,149.721 266.401 C 149.939 266.664,150.388 266.879,150.717 266.879 C 151.047 266.879,151.317 267.023,151.317 267.199 C 151.317 267.374,151.587 267.518,151.916 267.518 C 152.246 267.518,152.694 267.733,152.913 267.997 C 153.132 268.260,153.580 268.476,153.910 268.476 C 154.239 268.476,154.509 268.619,154.509 268.795 C 154.509 268.970,154.738 269.114,155.019 269.114 C 155.299 269.114,155.981 269.350,156.535 269.639 C 158.445 270.633,158.653 270.710,159.434 270.710 C 159.865 270.710,160.299 270.841,160.398 271.002 C 160.497 271.162,161.152 271.390,161.853 271.509 C 162.555 271.627,163.128 271.841,163.128 271.983 C 163.128 272.126,163.739 272.316,164.485 272.407 C 165.231 272.498,167.063 272.830,168.555 273.146 C 172.367 273.951,184.696 273.946,188.667 273.137 C 190.160 272.832,192.027 272.506,192.817 272.411 C 193.607 272.316,194.397 272.123,194.573 271.982 C 194.749 271.841,195.433 271.624,196.093 271.501 C 196.753 271.377,197.372 271.149,197.468 270.993 C 197.565 270.838,198.066 270.710,198.582 270.710 C 199.099 270.710,199.521 270.567,199.521 270.391 C 199.521 270.215,199.853 270.072,200.258 270.072 C 200.664 270.072,201.274 269.861,201.615 269.603 C 201.956 269.345,202.473 269.130,202.764 269.124 C 203.055 269.119,203.989 268.768,204.839 268.344 C 205.689 267.921,206.995 267.318,207.741 267.006 C 208.488 266.693,209.098 266.321,209.098 266.180 C 209.098 266.038,209.317 265.922,209.583 265.922 C 209.850 265.922,210.604 265.595,211.259 265.196 C 211.914 264.797,212.881 264.259,213.408 263.999 C 213.935 263.740,214.555 263.348,214.787 263.128 C 215.019 262.909,215.402 262.729,215.639 262.729 C 215.875 262.729,216.116 262.617,216.175 262.480 C 216.310 262.162,220.258 259.537,220.600 259.537 C 220.741 259.537,220.904 259.416,220.963 259.267 C 221.022 259.119,221.860 258.436,222.825 257.751 C 223.791 257.065,224.868 256.215,225.219 255.862 C 225.571 255.509,226.576 254.647,227.454 253.948 C 229.611 252.230,236.181 245.675,237.529 243.895 C 238.127 243.105,239.077 242.002,239.640 241.445 C 240.203 240.888,241.033 239.883,241.485 239.211 C 241.936 238.539,243.012 237.055,243.875 235.914 C 244.738 234.773,245.455 233.659,245.468 233.440 C 245.480 233.220,245.634 233.041,245.810 233.041 C 245.986 233.041,246.129 232.825,246.129 232.562 C 246.129 232.298,246.256 232.083,246.412 232.083 C 246.655 232.083,248.683 228.475,248.683 228.042 C 248.683 227.957,248.453 228.117,248.173 228.398 C 247.705 228.865,247.485 228.737,245.539 226.863 C 244.371 225.739,242.841 224.335,242.139 223.743 C 241.437 223.151,240.790 222.581,240.702 222.477 C 239.541 221.096,222.927 210.056,222.010 210.056 C 221.924 210.056,221.319 209.721,220.664 209.312 C 220.009 208.903,218.540 208.087,217.398 207.499 C 216.257 206.911,214.533 205.967,213.567 205.400 C 207.758 201.993,194.281 195.271,187.390 192.343 C 185.020 191.336,182.455 190.230,181.690 189.885 C 180.926 189.541,179.000 188.763,177.412 188.157 C 175.823 187.551,174.079 186.861,173.535 186.624 C 170.640 185.364,160.261 181.607,155.786 180.201 C 148.094 177.783,134.642 175.223,127.215 174.764 C 121.329 174.400,116.840 173.577,116.840 172.862 C 116.840 172.204,116.296 171.999,116.075 172.574 M156.264 197.567 C 160.487 200.003,158.888 206.655,153.974 207.089 C 151.886 207.273,149.830 206.222,148.849 204.469 C 146.258 199.838,151.592 194.873,156.264 197.567 M200.697 213.268 C 203.159 214.196,204.733 217.192,203.985 219.526 C 202.135 225.298,193.775 224.060,193.775 218.014 C 193.775 214.412,197.308 211.990,200.697 213.268 " stroke="none" fill="#ccbc8a" fill-rule="evenodd"></path><path id="path3" d="M227.180 45.649 C 225.354 46.217,224.708 47.150,223.309 51.237 C 222.828 52.642,221.996 54.581,221.460 55.547 C 220.925 56.512,220.215 57.786,219.884 58.378 C 219.553 58.969,219.340 59.510,219.410 59.580 C 219.480 59.651,220.001 58.840,220.566 57.778 C 221.132 56.717,221.927 55.490,222.333 55.052 L 223.072 54.255 223.270 55.046 C 223.517 56.031,225.046 57.216,227.135 58.044 C 228.013 58.392,229.804 59.194,231.116 59.825 C 232.539 60.510,233.981 60.974,234.689 60.974 C 236.573 60.974,236.453 61.689,233.779 66.401 C 233.430 67.015,232.667 68.380,232.083 69.433 C 231.499 70.487,230.781 71.780,230.487 72.306 C 230.193 72.833,229.475 74.126,228.891 75.180 C 228.307 76.233,227.588 77.526,227.294 78.053 C 227.001 78.579,226.286 79.872,225.707 80.926 C 225.128 81.979,224.626 82.877,224.591 82.921 C 224.556 82.965,223.668 82.719,222.617 82.374 C 219.594 81.381,214.207 80.080,213.622 80.201 C 213.329 80.261,214.022 80.498,215.164 80.727 C 216.305 80.957,217.598 81.258,218.037 81.398 C 218.476 81.538,219.769 81.908,220.910 82.221 C 222.051 82.534,223.121 82.909,223.288 83.055 C 224.235 83.883,225.264 82.803,227.141 79.010 C 227.489 78.308,227.847 77.662,227.936 77.574 C 228.025 77.486,228.385 76.840,228.734 76.137 C 229.084 75.435,229.441 74.789,229.529 74.701 C 229.732 74.497,230.166 73.723,231.995 70.293 C 232.809 68.767,233.812 66.943,234.223 66.241 C 234.634 65.539,235.290 64.318,235.681 63.528 C 236.629 61.613,236.888 61.295,239.521 58.810 C 241.009 57.405,241.757 53.138,240.673 52.241 C 234.675 47.276,229.726 44.859,227.180 45.649 M218.784 60.415 C 218.251 61.154,216.984 63.690,217.310 63.368 C 217.746 62.936,219.413 60.016,219.223 60.016 C 219.140 60.016,218.943 60.196,218.784 60.415 M215.696 65.975 C 215.048 67.141,214.565 68.143,214.624 68.202 C 214.682 68.260,215.260 67.354,215.908 66.188 C 216.557 65.022,217.039 64.020,216.981 63.961 C 216.922 63.903,216.344 64.809,215.696 65.975 M213.586 69.793 C 213.210 70.429,212.955 71.002,213.019 71.066 C 213.083 71.130,213.457 70.609,213.850 69.909 C 214.744 68.318,214.515 68.218,213.586 69.793 M211.990 72.666 C 211.614 73.303,211.359 73.876,211.423 73.939 C 211.486 74.003,211.861 73.482,212.254 72.782 C 213.148 71.191,212.919 71.091,211.990 72.666 M210.915 74.621 C 208.036 79.694,208.068 80.178,211.279 80.084 C 212.099 80.060,212.410 79.986,211.971 79.918 C 208.532 79.391,208.571 79.470,210.233 76.446 C 210.857 75.311,211.296 74.381,211.209 74.381 C 211.122 74.381,210.990 74.489,210.915 74.621 M194.892 81.911 L 192.977 82.347 195.052 82.120 C 197.739 81.826,210.379 81.824,212.450 82.117 C 214.040 82.342,214.042 82.341,212.769 81.983 C 210.804 81.428,197.254 81.374,194.892 81.911 M271.922 82.921 C 271.469 83.404,270.726 84.544,270.270 85.455 C 269.398 87.200,268.054 88.658,263.705 92.578 C 258.063 97.661,251.875 103.523,251.875 103.784 C 251.875 104.070,256.997 111.732,257.188 111.732 C 257.381 111.732,257.252 111.515,255.104 108.220 C 254.132 106.728,253.079 105.228,252.765 104.888 C 251.816 103.859,251.330 104.471,258.109 98.164 C 261.887 94.650,264.495 92.246,266.560 90.373 C 266.999 89.975,267.746 89.370,268.220 89.029 L 269.081 88.408 269.296 89.554 C 269.519 90.739,270.520 91.919,272.903 93.806 C 273.646 94.394,274.601 95.426,275.026 96.099 C 276.093 97.789,276.979 98.552,278.445 99.040 L 279.696 99.457 278.763 100.407 C 278.251 100.929,276.732 102.415,275.388 103.708 C 274.044 105.002,272.945 106.144,272.945 106.247 C 272.945 106.412,274.230 105.258,276.271 103.260 C 278.178 101.394,280.986 99.255,282.734 98.339 C 285.256 97.016,286.189 96.033,286.095 94.797 C 286.055 94.275,286.244 93.511,286.514 93.099 C 287.283 91.925,285.948 89.492,282.622 86.001 C 279.709 82.944,278.361 82.184,276.574 82.593 C 275.074 82.936,273.903 82.819,273.903 82.325 C 273.903 81.725,272.706 82.085,271.922 82.921 M190.583 82.698 C 190.239 82.932,190.466 82.964,191.381 82.811 C 192.964 82.546,193.219 82.361,191.993 82.367 C 191.480 82.370,190.846 82.519,190.583 82.698 M215.323 82.738 C 216.217 83.038,217.492 83.339,219.792 83.795 C 220.509 83.937,220.428 83.862,219.473 83.497 C 218.771 83.230,217.810 83.008,217.337 83.006 C 216.865 83.003,216.389 82.857,216.281 82.682 C 216.172 82.506,215.697 82.375,215.225 82.390 L 214.366 82.417 215.323 82.738 M187.071 83.506 C 185.846 84.007,186.362 83.962,188.986 83.339 C 190.088 83.078,190.090 83.074,189.146 83.062 C 188.619 83.055,187.686 83.255,187.071 83.506 M184.358 84.278 C 184.124 84.655,184.437 84.655,185.315 84.278 C 185.931 84.013,185.929 84.003,185.254 83.981 C 184.870 83.969,184.466 84.102,184.358 84.278 M221.868 84.496 C 222.482 84.769,223.250 85.129,223.575 85.296 C 223.899 85.463,224.222 85.541,224.292 85.471 C 224.363 85.400,224.026 85.158,223.543 84.933 C 223.060 84.707,222.416 84.396,222.111 84.240 C 221.806 84.085,221.375 83.968,221.154 83.979 C 220.932 83.990,221.253 84.223,221.868 84.496 M181.804 85.087 C 181.039 85.437,180.978 85.529,181.500 85.540 C 181.860 85.548,182.291 85.425,182.458 85.266 C 182.625 85.108,183.049 84.909,183.400 84.825 L 184.038 84.671 183.400 84.660 C 183.049 84.654,182.330 84.846,181.804 85.087 M177.061 86.885 C 175.458 87.695,175.723 87.967,177.359 87.191 C 178.048 86.865,178.827 86.518,179.090 86.421 C 179.421 86.298,179.372 86.246,178.931 86.253 C 178.579 86.258,177.738 86.543,177.061 86.885 M226.363 86.314 C 226.758 86.673,229.210 87.697,229.210 87.503 C 229.210 87.377,228.659 87.031,227.985 86.733 C 226.855 86.235,226.046 86.026,226.363 86.314 M172.227 89.237 C 170.822 90.008,169.062 90.958,168.316 91.346 C 167.570 91.735,166.959 92.174,166.959 92.323 C 166.959 92.471,167.283 92.384,167.678 92.129 C 168.073 91.875,170.048 90.796,172.067 89.733 C 174.086 88.670,175.523 87.807,175.259 87.817 C 174.996 87.826,173.631 88.465,172.227 89.237 M230.027 88.258 C 230.368 88.516,230.757 88.731,230.892 88.737 C 231.027 88.742,231.723 89.117,232.439 89.568 C 233.154 90.020,233.802 90.327,233.879 90.250 C 234.057 90.072,230.241 87.789,229.764 87.789 C 229.568 87.789,229.686 88.000,230.027 88.258 M234.328 90.593 C 234.333 90.719,235.007 91.228,235.824 91.725 C 236.642 92.221,237.128 92.408,236.906 92.140 C 236.404 91.535,234.314 90.281,234.328 90.593 M165.284 93.166 C 164.801 93.457,164.406 93.813,164.406 93.956 C 164.406 94.161,165.591 93.476,166.613 92.681 C 167.040 92.350,166.020 92.721,165.284 93.166 M238.787 93.727 C 242.869 97.235,247.317 101.716,249.632 104.654 C 250.370 105.590,251.049 106.280,251.143 106.186 C 251.489 105.840,243.580 97.355,240.685 94.967 C 238.827 93.435,237.242 92.399,238.787 93.727 M161.852 95.482 C 160.886 96.186,159.808 97.008,159.457 97.309 C 159.106 97.610,158.136 98.345,157.302 98.942 C 156.468 99.540,155.786 100.136,155.786 100.268 C 155.786 100.400,157.618 99.136,159.856 97.459 C 164.591 93.912,164.272 94.170,163.900 94.188 C 163.739 94.196,162.817 94.778,161.852 95.482 M285.890 96.844 C 285.442 97.259,285.076 97.750,285.076 97.935 C 285.076 98.120,284.896 98.335,284.677 98.413 C 284.457 98.492,284.361 98.646,284.462 98.757 C 284.695 99.012,286.672 97.267,286.672 96.806 C 286.672 96.617,286.852 96.389,287.071 96.301 C 287.363 96.183,287.367 96.133,287.087 96.115 C 286.877 96.101,286.338 96.429,285.890 96.844 M152.216 103.352 C 147.446 107.812,142.676 113.009,139.986 116.680 C 139.471 117.382,138.865 118.147,138.639 118.379 C 138.413 118.611,138.228 118.898,138.228 119.017 C 138.227 119.136,137.796 119.737,137.271 120.351 C 136.745 120.966,136.314 121.566,136.314 121.685 C 136.313 121.804,136.080 122.134,135.796 122.419 C 135.512 122.703,135.350 123.006,135.437 123.093 C 135.524 123.180,136.637 121.792,137.910 120.008 C 141.590 114.855,144.668 111.287,149.938 106.065 C 155.044 101.008,156.212 99.616,152.216 103.352 M252.558 108.540 C 253.356 109.681,254.408 111.303,254.896 112.145 C 255.384 112.987,255.848 113.612,255.926 113.534 C 256.135 113.325,252.523 107.684,251.759 107.025 C 251.401 106.717,251.761 107.398,252.558 108.540 M268.795 109.882 C 267.009 111.578,266.593 112.058,267.782 111.050 C 271.168 108.180,272.121 107.290,271.971 107.143 C 271.892 107.066,270.463 108.299,268.795 109.882 M263.126 115.075 C 260.562 117.536,260.379 117.570,259.546 115.742 C 259.191 114.962,258.777 114.248,258.627 114.156 C 258.477 114.063,258.728 114.772,259.185 115.731 C 260.244 117.955,260.474 117.927,263.368 115.236 C 264.685 114.011,265.653 113.009,265.520 113.009 C 265.387 113.009,264.310 113.939,263.126 115.075 M257.008 115.880 C 257.556 116.959,258.060 117.784,258.129 117.716 C 258.299 117.545,256.683 114.335,256.310 114.105 C 256.146 114.003,256.460 114.802,257.008 115.880 M172.227 115.504 C 159.786 119.948,159.738 138.092,172.159 141.314 C 184.708 144.569,194.414 127.664,185.255 118.505 C 182.016 115.265,176.470 113.988,172.227 115.504 M181.360 116.605 C 189.083 120.384,190.564 130.115,184.436 136.820 C 176.756 145.223,163.448 140.145,163.448 128.811 C 163.448 119.442,173.357 112.690,181.360 116.605 M258.260 118.189 C 258.260 118.731,259.582 121.370,259.763 121.189 C 259.879 121.074,259.803 120.809,259.596 120.601 C 259.388 120.393,259.213 120.001,259.208 119.729 C 259.198 119.274,258.260 117.749,258.260 118.189 M170.620 119.733 C 168.237 120.426,166.548 123.466,167.248 125.802 C 168.605 130.333,174.559 130.979,176.575 126.815 C 178.527 122.783,174.912 118.484,170.620 119.733 M174.105 120.475 C 177.043 121.702,177.603 125.772,175.133 127.941 C 173.578 129.306,172.046 129.509,170.224 128.591 C 164.846 125.883,168.543 118.151,174.105 120.475 M259.877 121.872 C 259.866 122.094,259.989 122.525,260.150 122.830 C 260.501 123.492,261.893 127.053,262.453 128.723 C 262.672 129.377,262.909 129.855,262.980 129.784 C 263.101 129.663,262.616 127.956,262.068 126.576 C 260.604 122.888,259.902 121.379,259.877 121.872 M134.460 124.421 C 132.092 127.776,126.540 137.819,126.870 138.150 C 126.952 138.232,127.343 137.600,127.739 136.747 C 128.136 135.894,129.149 133.990,129.992 132.516 C 130.835 131.042,131.524 129.781,131.524 129.714 C 131.524 129.646,132.382 128.230,133.429 126.567 C 135.235 123.701,135.803 122.519,134.460 124.421 M263.203 130.886 C 263.974 133.768,263.938 133.682,263.974 132.758 C 263.992 132.295,263.778 131.505,263.498 131.002 C 263.031 130.163,263.007 130.153,263.203 130.886 M231.678 135.367 C 224.591 136.559,219.816 144.445,221.721 151.808 C 224.167 161.260,235.761 164.588,242.559 157.790 C 249.988 150.362,246.200 137.234,236.095 135.383 C 234.004 135.000,233.864 134.999,231.678 135.367 M236.375 136.158 C 250.320 138.453,248.053 160.415,233.871 160.415 C 219.222 160.415,217.590 138.471,232.055 135.994 C 233.512 135.745,233.971 135.762,236.375 136.158 M264.807 136.792 C 264.912 137.318,265.118 138.252,265.264 138.867 L 265.529 139.984 265.566 138.983 C 265.586 138.433,265.380 137.499,265.109 136.908 C 264.615 135.834,264.615 135.834,264.807 136.792 M126.165 139.196 C 125.952 139.537,125.779 139.997,125.780 140.219 C 125.781 140.441,125.999 140.206,126.265 139.697 C 126.818 138.636,126.745 138.268,126.165 139.196 M228.651 140.761 C 227.141 141.855,226.508 143.396,226.736 145.420 C 227.409 151.395,236.019 151.187,236.463 145.185 C 236.789 140.766,232.218 138.177,228.651 140.761 M233.656 140.703 C 235.039 141.408,235.877 142.545,236.121 144.044 C 236.837 148.458,231.601 151.133,228.439 147.970 C 224.831 144.363,229.119 138.389,233.656 140.703 M265.794 141.314 C 266.088 142.537,266.241 142.653,266.241 141.652 C 266.241 141.194,266.092 140.727,265.909 140.615 C 265.691 140.480,265.652 140.721,265.794 141.314 M124.790 142.298 C 124.421 143.132,123.999 144.102,123.853 144.453 C 123.706 144.804,123.375 145.595,123.116 146.209 C 122.858 146.824,122.393 148.045,122.084 148.923 C 121.775 149.800,121.403 150.655,121.256 150.822 C 121.110 150.989,120.990 151.427,120.990 151.796 C 120.990 152.164,120.832 152.623,120.640 152.815 C 120.448 153.007,120.341 153.418,120.401 153.727 C 120.461 154.036,120.929 153.082,121.440 151.606 C 121.950 150.130,123.128 147.091,124.057 144.852 C 125.669 140.965,126.200 139.118,124.790 142.298 M266.457 144.932 C 266.570 145.547,266.760 147.055,266.879 148.284 L 267.095 150.519 267.123 148.444 C 267.137 147.302,266.948 145.794,266.701 145.092 C 266.264 143.847,266.258 143.843,266.457 144.932 M267.430 153.871 C 267.527 155.714,267.658 157.283,267.722 157.356 C 267.967 157.638,267.778 151.761,267.522 151.157 C 267.366 150.788,267.327 151.931,267.430 153.871 M119.705 155.835 C 119.501 156.598,119.203 157.472,119.044 157.777 C 118.885 158.082,118.762 158.585,118.771 158.894 C 118.780 159.204,118.975 158.955,119.204 158.340 C 120.033 156.116,120.406 154.777,120.243 154.614 C 120.151 154.522,119.909 155.072,119.705 155.835 M118.113 161.262 C 117.912 162.025,117.597 163.172,117.414 163.810 C 117.231 164.448,117.142 165.153,117.216 165.376 C 117.291 165.600,117.539 164.934,117.768 163.897 C 117.997 162.860,118.332 161.612,118.513 161.123 C 118.693 160.635,118.760 160.154,118.660 160.054 C 118.561 159.955,118.315 160.499,118.113 161.262 M116.556 167.787 C 116.331 168.824,116.077 169.960,115.991 170.311 C 115.906 170.662,115.642 171.812,115.405 172.865 C 115.168 173.919,114.825 175.355,114.643 176.057 C 114.461 176.760,114.241 179.130,114.154 181.325 L 113.995 185.315 114.433 180.577 C 114.674 177.971,115.013 175.457,115.187 174.990 C 115.360 174.524,115.736 173.065,116.022 171.748 C 116.308 170.431,116.697 168.754,116.885 168.021 C 117.074 167.288,117.169 166.511,117.097 166.295 C 117.025 166.078,116.781 166.750,116.556 167.787 M267.431 170.152 C 267.295 171.820,267.050 174.405,266.886 175.898 C 266.223 181.940,266.220 182.018,266.718 179.729 C 266.966 178.587,267.176 176.978,267.184 176.153 C 267.192 175.328,267.349 173.949,267.534 173.090 C 267.718 172.231,267.826 170.536,267.773 169.324 L 267.678 167.119 267.431 170.152 M265.965 183.932 C 265.941 184.225,265.829 184.728,265.715 185.050 C 265.556 185.501,265.598 185.552,265.902 185.272 C 266.118 185.073,266.231 184.570,266.152 184.155 C 266.073 183.740,265.989 183.639,265.965 183.932 M113.787 193.775 C 113.787 198.428,113.831 200.331,113.886 198.005 C 113.940 195.678,113.940 191.872,113.886 189.545 C 113.831 187.219,113.787 189.122,113.787 193.775 M265.234 186.911 C 265.126 187.614,264.940 188.547,264.822 188.986 C 264.619 189.744,264.634 189.740,265.124 188.891 C 265.422 188.374,265.596 187.500,265.536 186.816 L 265.432 185.634 265.234 186.911 M263.621 193.775 C 263.507 194.389,263.331 195.323,263.230 195.850 C 263.128 196.377,263.129 196.592,263.230 196.329 C 263.332 196.065,263.560 195.550,263.737 195.184 C 263.914 194.817,264.007 194.099,263.943 193.587 C 263.828 192.662,263.827 192.662,263.621 193.775 M152.352 197.558 C 150.954 197.961,149.437 199.482,149.068 200.851 C 147.751 205.742,154.439 208.582,157.291 204.342 C 159.524 201.022,156.196 196.450,152.352 197.558 M262.134 199.263 C 262.111 199.735,261.947 200.211,261.772 200.319 C 261.596 200.428,261.458 200.831,261.465 201.216 C 261.475 201.766,261.580 201.679,261.957 200.810 C 262.221 200.202,262.379 199.411,262.307 199.054 C 262.210 198.566,262.167 198.618,262.134 199.263 M260.882 202.852 C 260.669 203.319,260.495 203.973,260.495 204.306 C 260.495 204.638,260.351 204.999,260.176 205.108 C 260.000 205.216,259.857 205.548,259.858 205.845 C 259.860 206.186,260.035 206.049,260.337 205.470 C 260.599 204.967,260.814 204.314,260.814 204.018 C 260.814 203.722,260.974 203.320,261.169 203.125 C 261.365 202.929,261.467 202.597,261.397 202.386 C 261.326 202.175,261.095 202.385,260.882 202.852 M114.012 203.831 C 113.971 205.781,115.354 215.206,115.783 215.900 C 115.904 216.097,116.120 216.873,116.262 217.626 C 116.782 220.381,117.098 221.729,117.444 222.666 C 117.638 223.192,118.018 224.270,118.288 225.060 C 118.757 226.434,118.707 225.868,118.147 223.464 C 118.004 222.849,117.736 221.987,117.553 221.548 C 117.370 221.109,117.054 219.888,116.850 218.835 C 116.647 217.781,116.274 216.273,116.020 215.483 C 115.767 214.693,115.560 213.586,115.561 213.024 C 115.562 212.461,115.419 211.671,115.243 211.268 C 115.067 210.865,114.725 208.667,114.484 206.385 C 114.236 204.038,114.031 202.928,114.012 203.831 M258.659 209.013 C 258.091 210.224,258.167 210.720,258.750 209.603 C 259.017 209.091,259.196 208.557,259.147 208.417 C 259.098 208.276,258.879 208.544,258.659 209.013 M257.041 213.006 C 256.811 213.578,256.465 214.334,256.273 214.685 C 255.959 215.257,255.978 215.278,256.453 214.885 C 256.745 214.644,256.983 214.206,256.983 213.911 C 256.983 213.617,257.143 213.216,257.338 213.021 C 257.534 212.825,257.641 212.508,257.577 212.316 C 257.513 212.124,257.272 212.434,257.041 213.006 M197.399 213.906 C 194.798 214.685,193.576 218.097,195.039 220.495 C 196.666 223.163,200.847 223.212,202.717 220.585 C 205.114 217.219,201.498 212.678,197.399 213.906 M255.152 217.010 C 254.760 217.814,254.500 218.533,254.576 218.609 C 254.651 218.684,255.026 218.078,255.410 217.261 C 255.794 216.445,256.053 215.726,255.987 215.662 C 255.920 215.599,255.545 216.205,255.152 217.010 M253.586 220.195 C 253.234 220.852,252.565 222.071,252.098 222.905 C 251.632 223.739,251.381 224.421,251.541 224.421 C 251.701 224.421,251.933 224.098,252.057 223.703 C 252.180 223.308,252.373 222.913,252.485 222.825 C 252.795 222.583,254.461 219.239,254.335 219.113 C 254.274 219.052,253.937 219.539,253.586 220.195 M250.329 226.107 C 247.564 231.084,247.545 231.130,248.045 231.484 C 248.448 231.770,248.436 231.796,247.967 231.645 C 247.425 231.471,245.854 233.272,244.298 235.850 C 243.582 237.037,241.051 240.441,240.572 240.862 C 240.373 241.038,239.647 241.899,238.961 242.777 C 237.071 245.194,228.966 253.354,226.975 254.845 C 226.010 255.568,224.751 256.585,224.179 257.105 C 223.606 257.624,222.794 258.276,222.373 258.554 C 221.952 258.831,220.337 259.915,218.785 260.961 C 217.232 262.008,215.674 263.023,215.323 263.218 C 214.972 263.413,213.823 264.056,212.769 264.648 C 210.672 265.825,207.571 267.375,205.152 268.457 C 204.299 268.838,203.675 269.224,203.765 269.314 C 203.855 269.404,204.194 269.341,204.518 269.173 C 205.222 268.810,209.693 266.711,210.375 266.423 C 210.882 266.210,214.878 263.902,217.047 262.570 C 217.333 262.394,218.139 261.901,218.839 261.474 C 219.539 261.047,220.584 260.292,221.160 259.798 C 221.737 259.303,222.394 258.899,222.621 258.899 C 222.848 258.899,223.381 258.522,223.807 258.062 C 224.233 257.602,225.087 256.903,225.706 256.508 C 227.080 255.630,239.745 242.967,239.745 242.470 C 239.745 242.275,240.463 241.407,241.341 240.543 C 242.219 239.678,242.937 238.820,242.937 238.636 C 242.937 238.452,243.437 237.728,244.048 237.028 C 244.659 236.327,245.162 235.624,245.165 235.465 C 245.169 235.306,245.531 234.705,245.970 234.130 C 246.409 233.554,246.768 232.926,246.768 232.735 C 246.768 232.543,247.199 232.300,247.725 232.195 C 248.662 232.007,248.999 231.358,248.364 230.966 C 248.047 230.770,248.701 229.408,250.434 226.664 C 250.896 225.932,251.230 225.204,251.176 225.046 C 251.122 224.889,250.741 225.366,250.329 226.107 M118.755 226.759 C 118.755 226.883,118.887 227.233,119.048 227.538 C 119.209 227.843,119.581 228.918,119.875 229.928 C 120.354 231.571,120.990 232.639,120.990 231.801 C 120.990 231.626,120.846 231.393,120.670 231.285 C 120.495 231.176,120.351 230.745,120.351 230.327 C 120.351 229.909,120.208 229.478,120.032 229.370 C 119.856 229.261,119.708 228.857,119.703 228.473 C 119.697 228.088,119.481 227.494,119.224 227.154 C 118.966 226.813,118.755 226.635,118.755 226.759 M121.010 232.782 C 120.999 233.079,121.133 233.411,121.309 233.520 C 121.484 233.628,121.628 234.059,121.628 234.477 C 121.628 234.895,121.768 235.324,121.939 235.430 C 122.214 235.600,122.795 236.728,123.339 238.148 C 123.440 238.412,123.957 239.346,124.487 240.223 C 125.017 241.101,125.551 242.035,125.675 242.298 C 125.798 242.562,126.375 243.525,126.956 244.438 C 127.537 245.351,128.013 246.198,128.013 246.321 C 128.013 246.443,128.492 247.132,129.077 247.852 C 129.662 248.573,130.273 249.401,130.434 249.692 C 130.595 249.984,131.157 250.703,131.684 251.291 C 132.211 251.878,133.069 252.932,133.591 253.633 C 134.801 255.258,138.553 259.006,140.623 260.658 C 141.500 261.358,142.291 262.016,142.378 262.118 C 142.575 262.350,146.770 265.301,147.646 265.825 C 147.997 266.035,149.002 266.590,149.880 267.058 C 150.758 267.526,151.703 268.108,151.980 268.352 C 152.258 268.595,152.716 268.795,152.999 268.795 C 153.282 268.795,153.589 268.917,153.682 269.067 C 153.774 269.216,154.537 269.589,155.377 269.895 C 156.216 270.201,157.356 270.653,157.909 270.900 C 158.463 271.147,159.137 271.349,159.407 271.349 C 159.677 271.349,159.987 271.492,160.096 271.668 C 160.204 271.844,160.687 271.987,161.168 271.987 C 161.649 271.987,162.185 272.129,162.358 272.302 C 162.762 272.706,166.964 273.590,170.630 274.043 L 171.907 274.201 170.790 273.882 C 170.176 273.706,168.883 273.430,167.917 273.269 C 164.936 272.770,163.321 272.415,162.490 272.076 C 162.051 271.896,161.117 271.579,160.415 271.370 C 159.713 271.161,158.563 270.767,157.861 270.493 C 157.159 270.219,156.297 269.887,155.946 269.754 C 155.299 269.508,150.400 267.075,149.259 266.432 C 147.910 265.672,141.936 261.367,140.678 260.249 C 136.093 256.173,128.970 247.971,128.970 246.767 C 128.970 246.592,128.852 246.449,128.708 246.449 C 128.564 246.449,127.828 245.369,127.073 244.049 C 126.318 242.729,125.574 241.572,125.420 241.476 C 125.266 241.381,125.140 241.036,125.140 240.710 C 125.140 240.384,125.032 240.069,124.900 240.011 C 124.769 239.952,124.249 239.042,123.747 237.989 C 123.244 236.935,122.704 235.858,122.547 235.595 C 122.391 235.331,122.181 234.900,122.081 234.637 C 121.515 233.141,121.028 232.299,121.010 232.782 M202.075 269.716 C 202.075 269.872,201.680 270.074,201.197 270.165 C 200.430 270.311,198.653 270.869,195.211 272.047 C 194.173 272.402,192.465 272.766,189.465 273.269 C 188.412 273.446,186.903 273.723,186.113 273.885 L 184.677 274.180 186.113 274.053 C 189.299 273.772,193.972 272.918,195.394 272.359 C 195.820 272.191,196.816 271.880,197.606 271.667 C 200.578 270.867,203.875 269.452,202.793 269.441 C 202.398 269.437,202.075 269.561,202.075 269.716 M175.356 274.460 C 177.077 274.518,179.806 274.517,181.421 274.459 C 183.036 274.402,181.628 274.355,178.292 274.355 C 174.956 274.355,173.635 274.403,175.356 274.460 " stroke="none" fill="#6d591a" fill-rule="evenodd"></path><path id="path4" d="M222.443 54.893 C 221.957 55.355,220.240 58.292,216.835 64.485 C 216.207 65.626,214.423 68.845,212.870 71.637 C 211.317 74.429,210.109 76.775,210.185 76.852 C 210.261 76.928,210.502 76.655,210.721 76.244 C 210.939 75.834,211.358 75.068,211.652 74.541 C 211.946 74.014,212.664 72.721,213.248 71.668 C 213.832 70.615,214.551 69.322,214.844 68.795 C 215.138 68.268,215.856 66.975,216.441 65.922 C 217.525 63.966,217.774 63.519,219.640 60.176 C 220.228 59.122,220.901 57.880,221.135 57.416 C 221.882 55.936,222.356 55.750,222.975 56.693 C 223.304 57.196,224.501 57.978,225.968 58.647 C 227.312 59.261,229.340 60.214,230.475 60.765 C 231.610 61.316,233.230 61.840,234.075 61.929 L 235.611 62.091 234.962 63.360 C 234.605 64.059,234.358 64.765,234.412 64.929 C 234.467 65.094,234.902 64.406,235.379 63.399 C 236.385 61.274,236.300 60.974,234.689 60.974 C 233.981 60.974,232.539 60.510,231.116 59.825 C 229.804 59.194,228.025 58.396,227.161 58.053 C 225.069 57.222,223.791 56.277,223.349 55.234 C 223.011 54.438,222.945 54.413,222.443 54.893 M233.017 66.956 C 232.035 68.875,231.909 69.208,232.323 68.795 C 232.876 68.243,234.317 65.443,234.049 65.443 C 233.908 65.443,233.444 66.124,233.017 66.956 M231.004 70.673 C 230.544 71.458,230.168 72.197,230.168 72.314 C 230.168 72.431,229.865 72.953,229.494 73.473 C 229.124 73.993,228.891 74.488,228.976 74.573 C 229.116 74.713,230.487 72.634,230.487 72.282 C 230.487 72.201,230.856 71.549,231.308 70.833 C 231.760 70.118,232.064 69.468,231.985 69.389 C 231.906 69.310,231.465 69.888,231.004 70.673 M227.447 77.087 C 226.796 78.251,226.328 79.267,226.406 79.346 C 226.484 79.424,226.749 79.093,226.994 78.611 C 227.239 78.128,227.776 77.181,228.188 76.506 C 228.600 75.831,228.868 75.210,228.783 75.125 C 228.699 75.041,228.097 75.924,227.447 77.087 M209.443 77.845 C 208.720 79.197,210.095 80.330,211.715 79.715 C 211.944 79.629,211.520 79.452,210.774 79.323 C 209.407 79.087,209.099 78.658,209.795 77.962 C 210.003 77.754,210.086 77.498,209.981 77.392 C 209.875 77.286,209.633 77.490,209.443 77.845 M213.408 80.018 C 213.935 80.101,215.502 80.448,216.891 80.789 C 218.280 81.129,219.486 81.339,219.570 81.254 C 219.882 80.943,216.259 80.096,214.046 79.964 C 213.168 79.911,212.881 79.936,213.408 80.018 M225.021 81.523 C 224.756 82.104,224.383 82.369,223.811 82.383 L 222.985 82.403 223.749 82.709 C 224.170 82.877,224.537 82.976,224.564 82.928 C 224.592 82.880,224.870 82.434,225.182 81.936 C 225.494 81.438,225.671 80.952,225.576 80.857 C 225.481 80.762,225.231 81.061,225.021 81.523 M221.069 81.893 C 222.730 82.491,223.228 82.485,222.070 81.882 C 221.568 81.619,220.849 81.411,220.474 81.419 C 220.033 81.428,220.243 81.595,221.069 81.893 M197.080 81.924 C 196.878 82.007,195.800 82.205,194.685 82.364 C 192.272 82.709,195.797 82.505,200.000 82.056 L 202.235 81.817 199.840 81.796 C 198.524 81.784,197.281 81.842,197.080 81.924 M207.502 82.046 C 209.170 82.174,211.468 82.362,212.610 82.463 C 214.626 82.642,214.640 82.639,213.089 82.333 C 212.211 82.160,209.912 81.972,207.981 81.915 L 204.469 81.812 207.502 82.046 M190.583 83.001 C 189.801 83.251,189.804 83.257,190.742 83.283 C 191.269 83.298,191.915 83.171,192.179 83.001 C 192.784 82.610,191.803 82.610,190.583 83.001 M215.164 83.001 C 215.427 83.171,215.858 83.310,216.121 83.310 C 216.547 83.310,216.547 83.276,216.121 83.001 C 215.858 82.831,215.427 82.691,215.164 82.691 C 214.738 82.691,214.738 82.726,215.164 83.001 M187.390 83.663 C 186.951 83.815,185.946 84.147,185.156 84.402 C 183.990 84.778,183.881 84.871,184.578 84.891 C 185.051 84.905,185.516 84.789,185.612 84.634 C 185.708 84.478,186.399 84.259,187.147 84.146 C 188.657 83.917,189.959 83.307,188.827 83.359 C 188.476 83.375,187.829 83.512,187.390 83.663 M218.516 83.781 C 219.042 84.038,219.788 84.255,220.173 84.263 C 220.557 84.271,220.961 84.421,221.069 84.597 C 221.178 84.773,221.510 84.912,221.807 84.906 C 222.982 84.885,221.188 84.153,218.356 83.498 C 217.674 83.340,217.698 83.381,218.516 83.781 M182.442 85.235 C 182.334 85.411,181.982 85.555,181.662 85.555 C 181.341 85.555,180.667 85.769,180.164 86.032 C 178.885 86.698,179.578 86.629,181.609 85.887 C 183.487 85.200,183.939 84.916,183.153 84.916 C 182.870 84.916,182.551 85.060,182.442 85.235 M222.825 85.074 C 222.825 85.161,223.508 85.537,224.342 85.910 C 225.176 86.282,227.281 87.290,229.021 88.149 C 230.761 89.007,232.233 89.661,232.293 89.601 C 232.352 89.542,232.006 89.292,231.524 89.047 C 231.041 88.802,230.144 88.302,229.529 87.935 C 228.915 87.569,227.406 86.857,226.177 86.354 C 224.948 85.851,223.806 85.322,223.639 85.178 C 223.304 84.889,222.825 84.827,222.825 85.074 M175.419 88.094 C 173.663 88.951,172.370 89.661,172.546 89.671 C 172.721 89.680,174.013 89.118,175.415 88.420 C 176.818 87.722,178.138 87.151,178.350 87.151 C 178.561 87.151,178.822 87.007,178.931 86.832 C 179.267 86.287,178.717 86.485,175.419 88.094 M267.678 89.442 C 266.975 90.014,265.611 91.221,264.645 92.123 C 263.679 93.025,262.077 94.466,261.084 95.325 C 260.092 96.184,259.191 97.088,259.082 97.333 C 258.905 97.728,262.068 94.965,265.739 91.516 C 267.557 89.809,268.120 89.535,268.350 90.250 C 268.805 91.667,269.336 92.339,271.092 93.719 C 272.126 94.531,273.534 95.957,274.223 96.888 C 275.456 98.558,277.020 99.920,277.703 99.920 C 278.856 99.920,276.408 102.577,269.907 108.380 C 266.264 111.632,264.326 113.516,264.326 113.804 C 264.326 113.928,265.223 113.180,266.321 112.141 C 267.418 111.101,269.174 109.471,270.222 108.517 C 272.498 106.447,277.458 101.739,278.764 100.407 L 279.696 99.457 278.445 99.040 C 276.979 98.552,276.093 97.789,275.026 96.099 C 274.601 95.426,273.646 94.394,272.903 93.806 C 270.589 91.974,269.582 90.805,269.262 89.582 L 268.955 88.401 267.678 89.442 M170.630 90.494 C 169.928 90.927,169.453 91.285,169.575 91.291 C 169.851 91.303,172.067 90.007,172.067 89.833 C 172.067 89.625,171.968 89.670,170.630 90.494 M232.721 89.970 C 232.721 90.200,233.466 90.665,234.791 91.262 C 235.320 91.501,234.178 90.528,233.427 90.101 C 233.039 89.880,232.721 89.821,232.721 89.970 M166.134 93.083 C 163.181 94.937,158.978 97.953,158.978 98.218 C 158.978 98.302,160.092 97.571,161.453 96.593 C 162.813 95.614,165.112 94.086,166.560 93.196 C 168.864 91.780,169.502 91.301,169.083 91.301 C 169.022 91.301,167.695 92.103,166.134 93.083 M235.275 91.583 C 235.275 91.755,235.527 91.977,235.834 92.076 C 236.141 92.175,236.895 92.690,237.510 93.221 C 238.125 93.752,239.089 94.506,239.653 94.897 C 240.218 95.288,242.233 97.188,244.131 99.121 C 247.072 102.114,248.453 103.663,250.820 106.624 C 252.195 108.344,252.567 108.696,251.833 107.582 C 248.401 102.376,235.275 89.693,235.275 91.583 M258.069 98.117 C 257.877 98.319,256.476 99.665,254.957 101.110 C 251.943 103.976,251.935 103.988,252.765 104.888 C 253.596 105.790,256.754 110.660,257.773 112.612 C 258.255 113.536,258.777 114.370,258.934 114.467 C 259.407 114.760,259.258 114.337,258.420 113.009 C 257.981 112.313,257.622 111.673,257.622 111.585 C 257.622 111.336,255.412 107.925,254.055 106.079 C 252.886 104.489,252.512 103.287,253.115 103.059 C 253.553 102.894,258.671 97.989,258.538 97.863 C 258.473 97.801,258.262 97.915,258.069 98.117 M156.903 99.659 C 151.341 104.113,144.212 111.579,139.432 117.957 C 134.864 124.051,130.515 130.886,131.205 130.886 C 131.374 130.886,131.602 130.527,131.712 130.088 C 131.823 129.649,132.041 129.290,132.197 129.290 C 132.354 129.290,132.482 129.135,132.482 128.947 C 132.482 128.758,133.164 127.573,133.998 126.313 C 134.832 125.053,135.574 123.880,135.646 123.706 C 135.793 123.355,138.824 119.123,139.338 118.551 C 139.518 118.351,139.952 117.788,140.303 117.300 C 144.228 111.845,154.094 101.853,158.471 98.900 C 158.652 98.778,158.733 98.611,158.650 98.530 C 158.567 98.448,157.781 98.956,156.903 99.659 M252.514 109.133 C 252.514 109.304,252.626 109.492,252.764 109.550 C 253.014 109.657,255.706 113.819,255.706 114.100 C 255.706 114.428,257.072 116.538,257.201 116.409 C 257.374 116.236,253.266 109.286,252.832 109.018 C 252.657 108.910,252.514 108.961,252.514 109.133 M173.025 114.424 C 162.608 117.331,158.456 130.540,165.551 138.204 C 172.889 146.129,185.686 142.427,189.042 131.408 C 192.118 121.307,183.002 111.641,173.025 114.424 M262.410 115.370 C 261.282 116.468,260.854 116.705,260.415 116.473 C 260.048 116.280,259.856 116.295,259.856 116.519 C 259.856 117.531,260.978 117.147,262.516 115.608 C 263.420 114.705,264.088 113.968,264.003 113.969 C 263.917 113.971,263.200 114.601,262.410 115.370 M181.810 116.031 C 189.893 119.985,191.298 130.860,184.592 137.566 C 175.862 146.296,162.176 140.300,162.884 128.056 C 163.441 118.435,173.570 111.999,181.810 116.031 M257.302 117.004 C 257.302 117.094,257.446 117.417,257.622 117.722 C 257.797 118.027,258.088 118.691,258.269 119.198 C 258.450 119.705,258.673 120.045,258.766 119.952 C 258.859 119.859,258.624 119.121,258.243 118.311 C 257.620 116.985,257.302 116.544,257.302 117.004 M170.311 120.338 C 168.840 120.951,167.830 122.480,167.731 124.247 L 167.635 125.938 167.865 124.474 C 168.276 121.853,169.427 120.717,172.067 120.329 L 173.504 120.117 172.227 120.095 C 171.524 120.082,170.662 120.192,170.311 120.338 M174.769 121.342 C 175.454 121.943,176.087 122.916,176.380 123.816 L 176.862 125.299 176.672 124.033 C 176.465 122.655,175.561 121.173,174.620 120.670 C 173.565 120.105,173.614 120.328,174.769 121.342 M258.899 120.423 C 258.899 120.965,260.221 123.605,260.402 123.424 C 260.517 123.308,260.442 123.044,260.234 122.836 C 260.026 122.628,259.852 122.235,259.846 121.963 C 259.837 121.508,258.899 119.983,258.899 120.423 M176.217 125.895 C 176.217 126.606,174.908 128.056,173.850 128.517 C 173.186 128.806,173.059 128.950,173.461 128.958 C 174.187 128.973,176.536 126.694,176.536 125.975 C 176.536 125.691,176.464 125.459,176.377 125.459 C 176.289 125.459,176.217 125.655,176.217 125.895 M261.157 125.938 C 261.156 126.606,262.060 128.441,262.080 127.810 C 262.086 127.611,261.881 126.964,261.625 126.373 C 261.303 125.632,261.158 125.497,261.157 125.938 M167.925 126.188 C 167.897 127.038,170.504 129.363,170.967 128.900 C 171.031 128.836,170.616 128.531,170.044 128.223 C 169.472 127.915,168.763 127.274,168.469 126.800 C 168.175 126.326,167.930 126.051,167.925 126.188 M262.743 130.450 C 262.736 130.825,262.939 131.615,263.196 132.206 C 263.800 133.597,263.816 132.707,263.218 131.045 C 262.920 130.220,262.753 130.009,262.743 130.450 M129.763 132.879 C 129.265 133.802,128.588 135.041,128.259 135.632 C 127.931 136.223,127.731 136.776,127.816 136.861 C 127.901 136.946,128.341 136.283,128.794 135.388 C 129.247 134.494,129.911 133.241,130.268 132.605 C 130.625 131.970,130.862 131.394,130.794 131.326 C 130.725 131.258,130.262 131.957,129.763 132.879 M263.707 133.980 C 263.696 134.364,263.831 134.768,264.006 134.876 C 264.182 134.985,264.337 135.532,264.350 136.092 C 264.363 136.653,264.580 137.614,264.831 138.228 C 265.261 139.280,265.278 139.289,265.109 138.388 C 264.408 134.642,263.748 132.567,263.707 133.980 M230.327 134.825 C 214.764 140.008,218.923 163.431,235.163 162.058 C 246.398 161.108,251.379 146.285,243.177 138.210 C 239.949 135.033,234.228 133.525,230.327 134.825 M236.095 135.383 C 246.200 137.234,249.988 150.362,242.559 157.790 C 236.954 163.395,227.298 162.212,223.238 155.423 C 218.032 146.720,223.632 135.830,233.700 135.073 C 233.975 135.053,235.053 135.192,236.095 135.383 M126.638 138.936 C 125.442 141.391,124.501 143.655,124.676 143.655 C 124.759 143.655,125.268 142.686,125.807 141.500 C 126.345 140.315,126.990 138.927,127.241 138.416 C 127.491 137.905,127.643 137.433,127.578 137.368 C 127.513 137.303,127.090 138.008,126.638 138.936 M265.320 140.463 C 265.305 140.902,265.432 141.476,265.603 141.740 C 265.997 142.350,265.997 141.693,265.603 140.463 L 265.347 139.665 265.320 140.463 M229.422 140.818 C 227.821 141.663,226.828 143.752,227.142 145.613 C 227.760 149.272,232.702 150.616,235.092 147.775 C 238.394 143.850,233.968 138.420,229.422 140.818 M233.265 140.855 C 236.072 142.086,236.755 145.638,234.599 147.794 C 231.366 151.027,225.818 147.198,227.820 143.115 C 228.905 140.901,231.200 139.949,233.265 140.855 M265.981 143.496 C 265.964 144.198,266.156 145.634,266.407 146.688 L 266.865 148.603 266.688 147.007 C 266.295 143.450,266.015 142.063,265.981 143.496 M123.586 145.932 C 122.886 147.616,122.811 148.459,123.490 147.007 C 123.695 146.568,124.031 145.850,124.236 145.411 C 124.441 144.973,124.533 144.538,124.441 144.446 C 124.349 144.354,123.964 145.023,123.586 145.932 M121.993 149.985 C 121.280 151.940,121.118 152.794,121.623 151.930 C 122.078 151.153,122.968 148.400,122.814 148.246 C 122.739 148.171,122.369 148.953,121.993 149.985 M266.951 151.796 C 266.947 152.674,267.058 153.751,267.199 154.190 C 267.562 155.326,267.573 153.649,267.215 151.636 L 266.959 150.200 266.951 151.796 M120.097 155.503 C 119.870 156.229,119.749 156.886,119.827 156.964 C 120.022 157.160,120.747 154.898,120.615 154.503 C 120.557 154.327,120.323 154.777,120.097 155.503 M267.647 162.330 C 267.648 165.140,267.696 166.246,267.756 164.789 C 267.815 163.332,267.815 161.034,267.755 159.682 C 267.695 158.329,267.647 159.521,267.647 162.330 M119.093 158.877 C 118.893 159.547,118.568 160.635,118.371 161.294 C 118.174 161.954,118.089 162.568,118.180 162.660 C 118.272 162.752,118.525 162.141,118.741 161.302 C 118.958 160.463,119.285 159.377,119.467 158.888 C 119.649 158.400,119.722 157.923,119.628 157.830 C 119.534 157.736,119.293 158.207,119.093 158.877 M117.660 164.269 C 117.543 164.736,117.519 165.191,117.607 165.279 C 117.694 165.367,117.862 165.056,117.980 164.588 C 118.097 164.120,118.121 163.665,118.034 163.578 C 117.946 163.490,117.778 163.801,117.660 164.269 M117.068 166.800 C 116.728 168.681,116.504 170.358,116.642 169.992 C 117.179 168.566,117.519 166.954,117.419 166.304 C 117.324 165.685,117.251 165.787,117.068 166.800 M267.117 170.152 C 266.991 170.591,266.903 171.668,266.921 172.546 L 266.954 174.142 267.246 172.386 C 267.587 170.342,267.498 168.819,267.117 170.152 M116.059 171.372 C 115.928 171.955,115.900 172.510,115.996 172.606 C 116.236 172.847,116.616 171.234,116.440 170.724 C 116.361 170.497,116.190 170.788,116.059 171.372 M115.471 173.903 C 115.188 175.191,114.891 177.249,115.114 176.377 C 115.203 176.026,115.425 175.436,115.608 175.068 C 115.790 174.699,115.885 174.052,115.819 173.631 C 115.711 172.947,115.674 172.977,115.471 173.903 M266.454 177.015 C 266.317 177.717,266.076 179.585,265.919 181.165 C 265.762 182.745,265.558 184.469,265.466 184.996 C 265.342 185.702,265.415 185.619,265.745 184.677 C 265.991 183.974,266.203 182.637,266.216 181.706 C 266.230 180.774,266.397 179.392,266.588 178.634 C 266.779 177.877,266.882 176.915,266.819 176.497 C 266.729 175.908,266.647 176.024,266.454 177.015 M114.666 178.651 C 114.633 179.551,114.529 180.772,114.437 181.365 C 114.284 182.347,114.299 182.373,114.610 181.659 C 114.798 181.229,114.901 180.008,114.840 178.946 L 114.728 177.015 114.666 178.651 M114.107 193.775 C 114.107 198.603,114.151 200.579,114.205 198.164 C 114.259 195.750,114.259 191.800,114.205 189.385 C 114.151 186.971,114.107 188.947,114.107 193.775 M264.720 187.906 C 264.503 188.629,264.326 189.662,264.326 190.202 C 264.326 190.742,264.182 191.272,264.006 191.381 C 263.831 191.489,263.693 191.893,263.700 192.277 C 263.719 193.381,264.645 191.040,264.645 189.886 C 264.645 189.368,264.798 188.659,264.984 188.310 C 265.171 187.961,265.277 187.432,265.219 187.134 C 265.160 186.829,264.942 187.166,264.720 187.906 M263.110 194.524 C 262.901 195.103,262.741 195.925,262.755 196.351 C 262.769 196.778,262.823 196.983,262.876 196.808 C 262.928 196.632,263.155 195.877,263.381 195.130 C 263.870 193.508,263.653 193.022,263.110 194.524 M151.955 197.011 C 147.464 198.320,146.855 204.351,150.999 206.485 C 154.622 208.351,158.659 205.942,158.659 201.915 C 158.659 198.423,155.370 196.017,151.955 197.011 M155.380 197.913 C 158.846 199.487,158.891 204.283,155.455 205.970 C 150.744 208.285,146.451 201.907,150.527 198.648 C 152.352 197.190,153.427 197.027,155.380 197.913 M261.520 199.979 C 261.307 200.446,261.133 201.100,261.133 201.433 C 261.133 201.765,260.990 202.126,260.814 202.235 C 260.638 202.343,260.500 202.675,260.506 202.972 C 260.523 203.756,261.427 202.101,261.441 201.261 C 261.447 200.901,261.612 200.447,261.808 200.251 C 262.003 200.056,262.105 199.724,262.035 199.513 C 261.965 199.302,261.733 199.512,261.520 199.979 M114.515 206.385 C 114.613 207.614,114.746 208.679,114.809 208.752 C 115.051 209.032,114.866 205.395,114.607 204.789 C 114.443 204.403,114.407 205.034,114.515 206.385 M259.834 205.146 C 259.633 205.652,259.340 206.315,259.184 206.620 C 259.027 206.925,258.906 207.427,258.915 207.737 C 258.924 208.047,259.150 207.725,259.418 207.023 C 259.685 206.321,260.047 205.481,260.221 205.156 C 260.396 204.832,260.463 204.490,260.369 204.397 C 260.276 204.304,260.035 204.641,259.834 205.146 M258.238 209.296 C 258.037 209.802,257.744 210.465,257.587 210.770 C 257.431 211.075,257.306 211.506,257.310 211.728 C 257.314 211.949,257.542 211.628,257.818 211.014 C 258.093 210.399,258.459 209.631,258.630 209.307 C 258.802 208.982,258.866 208.640,258.773 208.547 C 258.680 208.454,258.439 208.791,258.238 209.296 M115.106 210.215 C 115.195 210.918,115.393 212.211,115.547 213.089 L 115.826 214.685 115.729 212.929 C 115.676 211.963,115.478 210.670,115.289 210.056 L 114.945 208.939 115.106 210.215 M256.690 212.881 C 256.500 213.235,256.345 213.738,256.345 213.999 C 256.345 214.259,256.180 214.527,255.978 214.594 C 255.776 214.662,255.672 214.902,255.748 215.130 C 255.829 215.371,256.063 215.165,256.312 214.635 C 256.547 214.136,256.875 213.462,257.043 213.137 C 257.210 212.813,257.277 212.477,257.191 212.392 C 257.105 212.306,256.880 212.526,256.690 212.881 M196.475 213.524 C 191.685 216.445,193.507 223.308,199.050 223.224 C 201.401 223.188,203.257 221.797,203.985 219.526 C 205.297 215.432,200.125 211.298,196.475 213.524 M201.417 214.482 C 205.139 217.168,203.453 222.506,198.883 222.506 C 196.191 222.506,194.417 220.704,194.415 217.968 C 194.412 214.546,198.610 212.456,201.417 214.482 M254.771 217.108 C 253.831 219.054,253.952 219.471,254.909 217.584 C 255.347 216.721,255.644 215.953,255.569 215.877 C 255.493 215.802,255.134 216.356,254.771 217.108 M116.688 217.717 C 116.774 218.332,116.979 219.409,117.145 220.112 L 117.446 221.389 117.331 220.112 C 117.267 219.409,117.062 218.332,116.873 217.717 L 116.531 216.600 116.688 217.717 M252.913 220.769 C 252.694 221.007,252.514 221.384,252.514 221.606 C 252.514 221.828,252.744 221.681,253.025 221.279 C 253.601 220.457,253.524 220.106,252.913 220.769 M118.270 224.262 C 118.402 224.613,118.625 225.385,118.767 225.977 C 119.030 227.076,119.713 228.087,119.713 227.377 C 119.713 227.177,119.569 226.924,119.393 226.816 C 119.218 226.707,119.070 226.232,119.064 225.759 C 119.058 225.287,118.824 224.613,118.542 224.262 L 118.031 223.623 118.270 224.262 M250.243 225.778 C 250.035 226.173,249.725 226.588,249.554 226.699 C 249.383 226.810,249.301 227.072,249.370 227.281 C 249.440 227.490,249.826 227.076,250.228 226.360 C 250.630 225.645,250.883 225.060,250.790 225.060 C 250.697 225.060,250.451 225.383,250.243 225.778 M247.749 230.008 C 247.176 231.149,246.577 232.083,246.418 232.083 C 246.259 232.083,246.129 232.298,246.129 232.562 C 246.129 232.825,245.986 233.041,245.810 233.041 C 245.634 233.041,245.480 233.220,245.468 233.440 C 245.455 233.659,244.738 234.773,243.875 235.914 C 243.012 237.055,241.936 238.539,241.485 239.211 C 241.033 239.883,240.203 240.888,239.640 241.445 C 239.077 242.002,238.126 243.105,237.525 243.895 C 236.925 244.685,234.845 246.912,232.902 248.844 C 229.421 252.306,228.264 253.361,225.926 255.205 C 225.274 255.719,224.743 256.294,224.746 256.482 C 224.749 256.725,224.818 256.725,224.985 256.482 C 225.114 256.294,226.010 255.553,226.975 254.835 C 228.954 253.365,237.054 245.215,238.961 242.777 C 239.647 241.899,240.373 241.038,240.572 240.862 C 241.051 240.441,243.582 237.037,244.298 235.850 C 245.854 233.272,247.425 231.471,247.967 231.645 C 248.435 231.796,248.448 231.770,248.045 231.486 C 247.630 231.192,247.681 230.933,248.427 229.540 C 248.900 228.656,249.176 227.933,249.040 227.933 C 248.904 227.933,248.323 228.867,247.749 230.008 M119.723 228.792 C 119.717 229.001,119.856 229.261,120.032 229.370 C 120.208 229.478,120.351 229.829,120.351 230.150 C 120.351 230.471,120.566 231.145,120.828 231.647 C 121.130 232.226,121.306 232.364,121.307 232.022 C 121.308 231.725,121.165 231.393,120.990 231.285 C 120.814 231.176,120.670 230.764,120.670 230.369 C 120.670 229.640,119.741 228.094,119.723 228.792 M121.751 233.769 C 121.976 234.433,122.327 235.116,122.532 235.286 C 122.800 235.508,122.815 235.487,122.586 235.211 C 122.410 235.001,122.267 234.597,122.267 234.315 C 122.267 234.032,122.059 233.522,121.804 233.182 C 121.395 232.633,121.389 232.700,121.751 233.769 M122.905 236.142 C 122.905 236.664,124.271 239.124,124.457 238.937 C 124.546 238.849,124.448 238.606,124.240 238.399 C 124.033 238.191,123.858 237.798,123.853 237.526 C 123.841 236.967,122.905 235.599,122.905 236.142 M125.140 240.762 C 125.140 241.037,125.355 241.441,125.619 241.660 C 126.228 242.166,126.222 241.691,125.608 240.881 C 125.233 240.385,125.140 240.361,125.140 240.762 M126.953 243.831 C 127.448 244.762,128.105 245.797,128.412 246.132 C 128.719 246.467,128.970 246.818,128.970 246.913 C 128.970 247.981,136.407 256.452,140.678 260.249 C 143.077 262.381,150.699 267.587,149.761 266.452 C 149.520 266.160,149.191 265.922,149.029 265.922 C 148.867 265.922,148.348 265.563,147.874 265.124 C 147.401 264.685,146.894 264.326,146.748 264.326 C 145.628 264.326,138.964 258.524,134.923 254.030 C 132.005 250.785,131.524 250.211,131.524 249.971 C 131.524 249.856,131.270 249.483,130.959 249.142 C 130.280 248.398,127.694 244.614,127.694 244.364 C 127.694 244.266,127.545 244.013,127.363 243.801 C 127.182 243.589,126.813 243.128,126.543 242.777 C 126.274 242.426,126.458 242.900,126.953 243.831 M222.666 257.842 C 221.788 258.481,221.022 259.124,220.963 259.271 C 220.904 259.417,220.741 259.537,220.600 259.537 C 220.325 259.537,216.386 262.083,216.121 262.433 C 216.034 262.549,215.638 262.744,215.243 262.868 C 214.848 262.991,214.525 263.217,214.525 263.370 C 214.525 263.738,215.384 263.253,218.790 260.961 C 220.345 259.915,222.071 258.754,222.626 258.382 C 223.530 257.776,224.684 256.652,224.381 256.672 C 224.315 256.676,223.543 257.203,222.666 257.842 M213.101 264.105 C 210.732 265.543,210.027 265.922,209.720 265.922 C 209.529 265.922,209.156 266.137,208.893 266.401 C 208.256 267.037,208.536 267.005,209.807 266.294 C 210.383 265.971,211.572 265.310,212.450 264.823 C 213.328 264.337,214.106 263.882,214.179 263.813 C 214.472 263.536,213.688 263.748,213.101 264.105 M207.183 267.181 C 206.919 267.325,206.309 267.628,205.826 267.854 C 205.344 268.079,205.023 268.338,205.114 268.428 C 205.204 268.519,205.448 268.423,205.656 268.215 C 205.864 268.007,206.256 267.833,206.528 267.827 C 206.800 267.821,207.302 267.606,207.643 267.348 C 208.300 266.851,207.988 266.737,207.183 267.181 M152.134 267.987 C 152.944 268.600,153.419 268.606,152.913 267.997 C 152.694 267.733,152.290 267.518,152.015 267.518 C 151.614 267.518,151.638 267.611,152.134 267.987 M154.049 268.944 C 154.390 269.202,154.912 269.418,155.209 269.423 C 155.506 269.429,155.837 269.577,155.946 269.753 C 156.054 269.928,156.314 270.067,156.523 270.062 C 157.135 270.045,155.723 269.114,155.087 269.114 C 154.769 269.114,154.509 268.970,154.509 268.795 C 154.509 268.619,154.266 268.476,153.969 268.476 C 153.499 268.476,153.509 268.536,154.049 268.944 M203.831 268.795 C 203.722 268.970,203.319 269.119,202.934 269.124 C 202.549 269.130,201.956 269.345,201.615 269.603 C 201.075 270.012,201.064 270.072,201.535 270.072 C 201.832 270.072,202.075 269.928,202.075 269.753 C 202.075 269.577,202.398 269.429,202.793 269.423 C 203.188 269.418,203.790 269.202,204.131 268.944 C 204.472 268.687,204.588 268.476,204.390 268.476 C 204.191 268.476,203.939 268.619,203.831 268.795 M159.878 271.224 C 160.636 271.489,161.426 271.638,161.634 271.553 C 161.841 271.468,161.696 271.388,161.312 271.374 C 160.927 271.360,160.524 271.205,160.415 271.030 C 160.306 270.854,159.831 270.717,159.359 270.726 C 158.640 270.738,158.725 270.820,159.878 271.224 M197.446 271.030 C 197.338 271.205,196.934 271.360,196.549 271.374 C 196.165 271.388,196.020 271.468,196.227 271.553 C 196.435 271.638,197.225 271.489,197.983 271.224 C 199.136 270.820,199.221 270.738,198.502 270.726 C 198.030 270.717,197.555 270.854,197.446 271.030 M164.725 272.661 C 165.515 272.835,166.736 273.033,167.438 273.101 L 168.715 273.225 167.279 272.910 C 166.488 272.736,165.267 272.538,164.565 272.470 L 163.288 272.345 164.725 272.661 M191.428 272.525 C 191.308 272.646,190.601 272.854,189.858 272.989 L 188.508 273.234 189.944 273.090 C 190.734 273.011,192.027 272.820,192.817 272.666 L 194.254 272.386 192.950 272.346 C 192.233 272.324,191.548 272.405,191.428 272.525 M169.673 273.583 C 170.024 273.734,170.599 273.858,170.950 273.858 L 171.588 273.858 170.950 273.583 C 170.599 273.433,170.024 273.309,169.673 273.309 L 169.034 273.309 169.673 273.583 M186.113 273.583 C 185.485 273.989,186.605 273.989,187.550 273.583 C 188.135 273.332,188.121 273.308,187.390 273.291 C 186.951 273.282,186.377 273.413,186.113 273.583 M175.037 274.141 C 176.934 274.198,179.951 274.197,181.741 274.141 C 183.531 274.084,181.979 274.037,178.292 274.038 C 174.605 274.038,173.140 274.084,175.037 274.141 " stroke="none" fill="#8e802f" fill-rule="evenodd"></path><path id="path5" d="M170.763 121.095 C 167.190 122.712,167.835 127.720,171.683 128.236 C 176.030 128.819,177.502 122.827,173.434 121.105 C 172.229 120.595,171.872 120.594,170.763 121.095 M229.198 142.024 C 226.983 143.873,227.936 147.797,230.728 148.321 C 232.328 148.621,234.067 147.997,234.722 146.888 C 236.940 143.133,232.525 139.246,229.198 142.024 " stroke="none" fill="#f7f7f7" fill-rule="evenodd"></path></g></svg>